<?xml version="1.0" encoding="UTF-8" standalone="no"?>
<!-- Created with Inkscape (http://www.inkscape.org/) -->
<svg
   xmlns:svg="http://www.w3.org/2000/svg"
   xmlns="http://www.w3.org/2000/svg"
   version="1.0"
   width="744.09448"
   height="1052.3622"
   id="svg2">
  <defs
     id="defs4" />
  <g
     id="layer1">
    <g
       transform="translate(-14.285714,-10)"
       id="g2441">
      <path
         d="M 339.99999,318.07648 A 112.85714,102.85714 0 1 1 114.28571,318.07648 A 112.85714,102.85714 0 1 1 339.99999,318.07648 z"
         transform="translate(-98.571429,-150)"
         id="path2383"
         style="fill:#ff0000" />
      <path
         d="M 100.12762,74.81346 C 95.336861,71.9812 90.888191,68.44432 86.771101,64.69892 C 78.596221,57.36187 69.427021,51.23736 60.422501,44.98084 C 53.645721,40.58353 47.093471,35.69373 39.521951,32.74701 C 35.356001,31.5516 30.990621,30.8938 26.817061,32.3157 C 20.245681,35.29683 10.277411,40.9909 41.526091,23.76188 C 41.855101,23.58049 40.929601,24.24078 40.728171,24.55791 C 40.066891,25.59898 39.987751,26.60695 39.744911,27.79229 C 39.586881,30.80463 38.466581,34.51974 40.234151,37.28739 C 40.590751,37.84577 41.097721,38.2924 41.529511,38.79491 C 47.497151,44.12016 55.804051,45.27067 63.391461,46.71065 C 74.393521,48.57963 85.450961,50.17656 96.560671,51.25199 C 103.93726,51.43368 111.19136,52.4508 118.4577,53.63628 C 122.39386,54.50882 125.2497,55.14254 127.17228,58.90516 C 128.2351,61.65459 128.73247,64.51077 129.03822,67.42821 C 129.44498,71.24976 133.38635,71.33148 136.45688,71.67463 C 145.73192,72.28244 155.03818,72.17852 164.32851,72.20514 C 176.74523,72.50747 189.14036,71.99201 201.5422,71.49361 C 213.02346,70.7749 224.50346,70.0455 235.99307,69.4722 C 238.40547,69.36373 240.14588,69.29415 242.49444,69.16049 C 243.09334,69.12641 243.69219,69.09039 244.2903,69.04452 C 244.5968,69.02102 245.46023,68.77683 245.2079,68.95239 C 227.0087,81.61495 233.94626,83.04895 225.15227,80.61328 C 217.29401,78.88919 209.31114,78.13693 201.29913,77.5854 C 182.58698,76.39839 163.83813,76.95421 145.13534,77.96357 L 160.84673,66.43663 C 179.74204,65.7013 198.65807,65.18788 217.56398,65.91183 C 225.90787,66.31037 234.22319,66.96005 242.42326,68.63635 C 251.0205,70.12671 245.53047,68.6906 228.06681,81.50451 C 227.85856,81.65731 227.55072,81.47983 227.29245,81.4758 C 226.04312,81.45634 224.21922,81.47175 223.0659,81.49237 C 221.86844,81.51377 220.67128,81.54936 219.47397,81.57786 C 208.0746,81.94153 196.6928,82.63328 185.31312,83.38575 C 172.87408,83.89706 160.43803,84.15775 147.9871,84.07992 C 138.46495,84.12239 128.92258,84.30024 119.41421,83.71459 C 115.3462,83.09101 111.02703,81.90906 110.36894,77.17713 C 110.11306,74.50315 109.63925,71.91446 108.76718,69.37053 C 107.46147,66.56335 104.11842,66.29166 101.41056,65.58203 C 94.276291,64.2815 87.111991,63.50499 79.868421,63.10553 C 68.825711,61.77069 57.836601,60.0112 46.853951,58.26016 C 38.682541,56.72216 29.861101,55.55292 23.587481,49.58298 C 23.038701,48.92406 22.408041,48.32549 21.941141,47.60623 C 19.879731,44.43067 20.751631,40.5716 20.876881,37.03806 C 20.960971,36.30248 21.277361,32.13539 21.906271,31.72207 C 29.446961,26.76638 35.392591,21.5705 43.576901,19.54251 C 48.107121,18.93154 52.570531,19.57991 56.854681,21.19043 C 64.243701,24.60722 70.696301,29.63797 77.447311,34.13198 C 86.524421,40.50452 95.711081,46.76769 104.30445,53.78756 C 108.50125,57.28085 112.82867,60.89501 117.82179,63.17133 L 100.12762,74.81346 z"
         id="path2389"
         style="fill:#008000" />
      <path
         d="M 113.40941,79.0079 C 113.48735,74.89745 113.4822,70.80547 113.88126,66.71056 C 114.17857,62.24858 115.14436,57.88938 116.06226,53.52599 C 116.87852,49.297 117.21987,45.05366 118.88421,41.05226 C 120.76752,37.15282 123.85487,34.4533 127.33444,32.03703 C 133.76202,28.39274 141.2233,22.35324 149.1816,20.14519 C 151.56383,19.48423 153.94259,18.93323 156.25663,18.04679 C 159.43576,16.77024 162.85266,16.48758 166.23631,16.26796 C 169.14254,15.06665 172.05319,13.81359 175.06124,12.87902 C 177.01681,12.31799 179.03957,12.12658 181.05863,11.97201 L 164.1071,24.56016 C 162.1759,24.81891 160.25278,25.14421 158.41715,25.82685 C 155.42643,26.93811 152.46604,28.32451 149.29223,28.79224 C 145.98425,29.12343 142.7426,29.7282 139.64276,30.97787 C 137.32441,31.68527 134.92111,32.2258 132.64926,33.07295 C 126.87717,35.22531 113.48045,44.01382 146.89106,24.41963 C 143.39353,26.50634 140.12455,28.81781 137.98997,32.38835 C 135.85159,36.09359 135.69554,40.30407 134.85892,44.43135 C 133.96727,48.72721 133.05031,53.02427 132.64657,57.39934 C 132.18234,61.38685 132.07024,65.36769 132.30489,69.38017 L 113.40941,79.0079 z"
         id="path2387"
         style="fill:#552200" />
    </g>
  </g>
</svg>
