<?xml version="1.0" encoding="UTF-8" standalone="no"?>
<!-- Created with Inkscape (http://www.inkscape.org/) -->
<svg
   xmlns:dc="http://purl.org/dc/elements/1.1/"
   xmlns:cc="http://creativecommons.org/ns#"
   xmlns:rdf="http://www.w3.org/1999/02/22-rdf-syntax-ns#"
   xmlns:svg="http://www.w3.org/2000/svg"
   xmlns="http://www.w3.org/2000/svg"
   xmlns:sodipodi="http://sodipodi.sourceforge.net/DTD/sodipodi-0.dtd"
   xmlns:inkscape="http://www.inkscape.org/namespaces/inkscape"
   version="1.0"
   width="450"
   height="545"
   id="svg2"
   sodipodi:version="0.32"
   inkscape:version="0.46"
   sodipodi:docname="tree.svg"
   inkscape:output_extension="org.inkscape.output.svg.inkscape">
  <metadata
     id="metadata10">
    <rdf:RDF>
      <cc:Work
         rdf:about="">
        <dc:format>image/svg+xml</dc:format>
        <dc:type
           rdf:resource="http://purl.org/dc/dcmitype/StillImage" />
      </cc:Work>
    </rdf:RDF>
  </metadata>
  <sodipodi:namedview
     inkscape:window-height="805"
     inkscape:window-width="893"
     inkscape:pageshadow="2"
     inkscape:pageopacity="0.0"
     guidetolerance="10.0"
     gridtolerance="10.0"
     objecttolerance="10.0"
     borderopacity="1.0"
     bordercolor="#666666"
     pagecolor="#ffffff"
     id="base"
     showgrid="false"
     inkscape:zoom="1.3384714"
     inkscape:cx="554.84445"
     inkscape:cy="328.29231"
     inkscape:window-x="0"
     inkscape:window-y="0"
     inkscape:current-layer="svg2" />
  <defs
     id="defs4">
    <inkscape:perspective
       sodipodi:type="inkscape:persp3d"
       inkscape:vp_x="0 : 526.18109 : 1"
       inkscape:vp_y="0 : 1000 : 0"
       inkscape:vp_z="744.09448 : 526.18109 : 1"
       inkscape:persp3d-origin="372.04724 : 350.78739 : 1"
       id="perspective12" />
  </defs>
  <g
     id="layer1"
     transform="translate(-135.24333,-71.621666)">
    <path
       d="M 661.42856,231.6479 C 661.42856,285.69291 560.69263,329.50504 436.42856,329.50504 C 312.16449,329.50504 211.42856,285.69291 211.42856,231.6479 C 211.42856,177.60289 312.16449,133.79076 436.42856,133.79076 C 560.69263,133.79076 661.42856,177.60289 661.42856,231.6479 L 661.42856,231.6479 z"
       transform="matrix(1,0,0,-1,-75.714286,401.86724)"
       id="path2508"
       style="fill:#008000" />
    <path
       d="M 203.58107,575.23427 C 211.65291,571.34727 219.69976,567.36205 227.77988,563.47264 C 239.85924,557.74667 252.75822,554.12114 265.76518,551.2238 C 274.24854,549.19251 282.96505,549.39002 291.60669,548.92951 C 296.79617,548.48302 302.13025,548.72431 307.15027,547.1134 C 309.50839,546.35668 310.22635,545.83545 312.32625,544.6759 C 285.33282,560.70648 296.27931,555.44535 300.86976,548.18155 C 303.48054,544.05032 305.04991,539.6094 306.69023,535.03592 C 311.89917,519.20438 315.90115,503.02106 320.40162,486.98288 C 326.20447,467.53818 331.33421,447.9171 335.32218,428.01945 C 338.75296,409.24278 340.51607,390.15418 340.6421,371.07083 C 340.71058,362.8047 339.55552,354.61882 338.67706,346.41961 C 336.80644,334.85725 335.19568,323.25958 333.60931,311.65304 C 331.24071,295.9361 329.19937,280.17767 327.2931,264.39898 C 326.19044,254.88447 324.77527,245.43079 322.0341,236.24233 C 320.19485,230.71639 317.66055,225.46522 316.01035,219.875 C 312.94212,207.23623 319.46424,210.05317 334.62149,201.0298 C 336.89643,201.60349 338.81703,202.91883 340.95732,203.79442 C 343.32744,205.99051 345.36738,208.44263 348.0319,210.30702 C 352.92669,213.25999 358.69611,213.93343 364.27586,214.4804 C 368.41684,214.83575 372.76252,214.95153 376.66271,213.35263 C 380.44536,211.83217 384.41908,211.1409 388.44933,210.71937 C 391.12149,210.32115 393.96243,210.61235 393.0782,214.3233 C 392.76594,215.63383 390.92076,218.0098 390.25134,218.9633 C 386.47478,224.17818 381.37965,228.19858 377.27918,233.12162 C 374.19867,236.55682 372.93816,240.83759 371.70948,245.17063 C 369.78747,252.34164 369.51857,259.82317 368.88969,267.1874 C 368.05688,278.63276 367.09428,290.06459 365.22306,301.39088 C 363.42871,312.03918 360.18252,322.30701 356.41641,332.39538 C 353.99685,339.55944 350.4826,346.419 348.82518,353.83333 C 348.49999,355.28802 348.32398,356.77209 348.07338,358.24146 C 346.99043,367.21428 347.54391,376.25139 348.0336,385.24137 C 348.65645,396.37459 348.95473,407.52858 348.73073,418.67712 C 347.70855,433.60194 345.89327,448.47365 344.12086,463.32803 C 343.26706,470.09271 342.57677,476.87642 342.30168,483.69025 C 341.70937,489.82909 342.68486,491.7984 345.81244,496.91936 C 349.22927,502.5826 352.40864,508.34348 354.68625,514.55979 C 356.59491,520.06712 358.5236,525.56994 360.46302,531.06743 C 361.34834,533.51519 362.11696,536.33813 364.10504,538.18833 C 364.74482,538.78375 367.23338,540.23254 367.79312,540.57276 C 374.25197,543.98117 379.69812,548.95017 385.48022,553.35164 C 394.93642,560.71828 406.16208,564.96031 417.50398,568.4307 C 432.35846,572.16242 447.59894,573.88128 462.72859,576.06808 C 476.70983,578.16631 490.2029,582.24404 503.0743,588.02747 C 511.5174,591.94731 519.24061,597.131 526.76916,602.553 L 509.46936,613.51394 C 502.22442,608.03564 494.728,602.8808 486.43521,599.08158 C 473.69408,593.45079 460.32436,589.52877 446.5228,587.48692 C 431.30401,585.24102 415.97962,583.3892 401.02862,579.67108 C 389.38979,576.13275 378.03071,571.59199 368.16721,564.30958 C 362.30308,560.03114 356.84449,555.10903 350.27561,551.89403 C 345.25225,548.84792 343.83446,546.80623 342.23151,541.13958 C 340.34049,535.63162 338.37721,530.1475 336.53863,524.62502 C 334.30617,518.54439 331.39463,512.80927 327.84105,507.38147 C 324.63712,502.38816 322.91429,499.20754 323.58027,493.10643 C 324.02733,486.10154 324.95484,479.14613 326.07232,472.218 C 328.3297,457.49621 330.27028,442.66829 330.79613,427.77392 C 330.97898,416.70039 330.58736,405.62781 329.97881,394.57054 C 329.43743,385.4666 328.54116,376.3456 329.71879,367.2451 C 329.92753,365.71358 330.05122,364.16805 330.34501,362.65056 C 331.80622,355.103 335.49872,348.21376 337.94622,340.98203 C 341.76657,330.95758 345.30019,320.79361 347.19055,310.19803 C 349.16515,299.00151 349.92234,287.66315 350.59228,276.32195 C 351.17815,268.92275 351.26821,261.41133 352.85573,254.14446 C 354.06535,249.66296 354.94618,244.93825 358.10677,241.3446 C 361.89979,236.1315 367.28705,232.39238 371.15876,227.22429 C 372.11534,225.9578 372.85859,224.51412 373.9711,223.38215 C 374.17652,223.17313 375.08672,223.05941 374.79394,223.07239 C 371.84263,223.20328 374.99279,222.93366 371.59696,223.27724 C 367.6322,223.82786 363.79407,224.83514 360.03201,226.2111 C 355.82713,227.12849 351.57417,227.1327 347.31254,226.51381 C 341.42778,225.75236 335.42089,224.79511 330.31563,221.5584 C 327.81349,219.70417 325.7669,217.39411 323.31569,215.5184 C 321.82355,214.80799 319.62164,213.22451 318.02682,214.26707 C 323.7582,210.79248 329.48743,207.31436 335.22095,203.8433 C 335.46691,203.6944 334.3208,203.97016 333.99649,205.17445 C 333.58068,206.71854 334.25041,208.34473 334.43963,209.8573 C 335.85853,215.52654 338.27002,220.83916 340.11203,226.37298 C 342.81252,235.7726 344.08786,245.40957 344.98229,255.13802 C 346.58662,270.96162 348.38507,286.76589 350.97819,302.46324 C 352.97699,313.92616 354.86934,325.40836 356.87132,336.86989 C 358.01212,345.23651 358.93238,353.62367 358.37402,362.08691 C 357.63004,381.34724 355.6659,400.56345 352.67964,419.60448 C 348.6796,439.47696 343.4679,459.07644 338.02816,478.59897 C 333.59142,494.52065 329.4342,510.51561 324.99703,526.43701 C 323.55994,531.11992 322.1135,535.5914 319.75603,539.90767 C 319.49466,540.38622 316.67357,545.15782 315.93304,545.65347 C 309.49198,549.96461 302.6691,553.67597 296.03713,557.68721 C 289.19619,560.64919 282.49521,560.75853 275.13583,561.02528 C 266.60021,561.44313 258.01346,561.60042 249.63407,563.49103 C 236.74651,566.34318 224.03233,570.07344 212.15665,575.9399 C 203.75372,580.05399 195.38307,584.2301 187.04094,588.46481 L 203.58107,575.23427 z"
       id="path2498"
       style="fill:#552200" />
    <path
       d="M 335.14556,521.61002 C 334.95441,526.96554 334.99496,532.32687 334.95064,537.68526 C 334.875,543.7744 334.98364,549.86283 335.01832,555.95162 C 335.07566,560.14102 335.05719,564.33073 335.0665,568.52033 C 334.81126,572.71774 334.4109,577.02697 332.57933,580.85736 C 327.36443,587.67619 316.55932,591.35913 310.44475,594.63522 C 309.78884,594.98665 307.21842,595.16244 306.53697,595.35343 C 305.96312,595.51426 305.44365,595.82813 304.89699,596.06548 C 297.86364,598.76318 289.42991,603.96394 318.67669,587.78545 C 319.11954,587.54047 317.82713,588.33934 317.43561,588.66003 C 316.48336,589.44004 316.17879,589.91308 315.39586,590.87003 C 314.07355,592.62936 314.71141,591.7452 313.48042,593.52116 L 294.18928,602.00163 C 295.33486,600.07684 294.72096,601.00694 296.02897,599.21002 C 296.19953,598.96487 297.69165,596.80817 297.88552,596.57737 C 303.73402,589.61497 313.05724,586.27349 321.49695,583.14372 C 322.71006,582.8268 323.9467,582.59433 325.14275,582.21816 C 325.74509,582.02872 327.44882,581.20713 326.91014,581.53656 C 297.20369,599.70383 307.63706,593.54844 313.29182,589.31951 C 313.6442,588.92691 314.0786,588.5947 314.34897,588.14169 C 316.01781,585.34551 315.85167,581.16774 316.36207,578.05072 C 316.3714,573.84474 316.35309,569.63867 316.41025,565.43291 C 316.44486,559.32112 316.55321,553.2097 316.47793,547.09757 C 316.43379,541.80542 316.4759,536.51014 316.28301,531.22097 L 335.14556,521.61002 z"
       id="path2500"
       style="fill:#552200" />
    <path
       d="M 338.35024,512.06622 C 342.37228,517.25904 345.23927,523.0724 347.76017,529.10644 C 350.73019,536.32907 352.95084,543.81419 354.47894,551.46498 C 356.07288,558.33147 356.72362,565.51606 359.19912,572.14427 C 361.02586,576.6569 364.74114,579.78443 368.8327,582.20861 C 374.06251,585.0538 379.62195,587.19654 385.04572,589.62464 C 388.67431,591.18342 392.28022,592.78763 395.86236,594.44985 L 378.67788,605.82345 C 375.11423,604.15139 371.52533,602.54125 367.87898,601.05535 C 362.2707,598.70718 356.55143,596.56065 351.25742,593.53591 C 346.8899,590.67772 342.95318,587.22347 340.98482,582.24873 C 338.52721,575.4734 338.07722,568.13293 336.35002,561.15369 C 334.87016,553.63434 332.62157,546.28932 329.83423,539.15015 C 327.39352,533.27291 324.50072,527.66435 320.15967,522.93839 L 338.35024,512.06622 z"
       id="path2502"
       style="fill:#552200" />
  </g>
</svg>
