<?xml version="1.0" encoding="UTF-8" standalone="no"?>
<!-- Created with Inkscape (http://www.inkscape.org/) -->
<svg
   xmlns:dc="http://purl.org/dc/elements/1.1/"
   xmlns:cc="http://web.resource.org/cc/"
   xmlns:rdf="http://www.w3.org/1999/02/22-rdf-syntax-ns#"
   xmlns:svg="http://www.w3.org/2000/svg"
   xmlns="http://www.w3.org/2000/svg"
   xmlns:sodipodi="http://inkscape.sourceforge.net/DTD/sodipodi-0.dtd"
   xmlns:inkscape="http://www.inkscape.org/namespaces/inkscape"
   id="svg18411"
   sodipodi:version="0.32"
   inkscape:version="0.43"
   width="200pt"
   height="187pt"
   sodipodi:docbase="C:\foo\wikipedia\transfer"
   sodipodi:docname="fourleafclover.svg"
   version="1.0">
  <metadata
     id="metadata18416">
    <rdf:RDF>
      <cc:Work
         rdf:about="">
        <dc:format>image/svg+xml</dc:format>
        <dc:type
           rdf:resource="http://purl.org/dc/dcmitype/StillImage" />
      </cc:Work>
    </rdf:RDF>
  </metadata>
  <defs
     id="defs18414" />
  <sodipodi:namedview
     inkscape:window-height="540"
     inkscape:window-width="812"
     inkscape:pageshadow="2"
     inkscape:pageopacity="0.0"
     borderopacity="1.0"
     bordercolor="#666666"
     pagecolor="#ffffff"
     id="base"
     inkscape:zoom="0.91254807"
     inkscape:cx="90.720878"
     inkscape:cy="153.52764"
     inkscape:window-x="132"
     inkscape:window-y="132"
     inkscape:current-layer="svg18411" />
  <g
     id="g19310"
     transform="matrix(0.501964,0,0,0.501964,8.938959e-3,-0.911942)">
    <path
       id="path18420"
       d="M 26.082823,458.81149 C 17.867608,456.29566 13.660298,454.61318 9.8328282,452.31318 C 3.5583182,448.54271 4.7648682,447.41501 29.082823,434.32108 C 61.726407,416.74425 88.113291,398.86861 126.01347,368.65599 C 129.90161,365.55651 143.20782,353.25047 155.58282,341.30924 C 182.52689,315.30962 192.6622,306.37296 215.08282,288.846 C 224.43283,281.53679 232.44269,274.93437 232.88252,274.17397 C 234.16628,271.95452 232.6652,270.44657 222.08283,263.32489 C 211.04757,255.89843 207.58282,253.02305 207.58282,251.29141 C 207.58282,250.65816 206.45782,249.08316 205.08282,247.79141 C 203.70782,246.49966 202.58282,244.99812 202.58282,244.45464 C 202.58282,243.91117 201.21802,241.33964 199.54992,238.74014 C 195.10672,231.81602 192.36257,221.17492 193.73553,216.19345 C 195.03115,211.49257 199.8304,201.7854 203.57514,196.29141 C 205.07467,194.09141 207.07515,190.78299 208.02064,188.93937 C 209.70003,185.66472 209.68631,185.53048 207.42663,183.12516 C 206.15444,181.77096 202.18163,178.72887 198.59818,176.36494 C 195.01473,174.00101 188.8451,168.65463 184.88788,164.4841 C 176.66193,155.81472 174.58282,150.83326 174.58282,139.79357 C 174.58282,115.59003 184.25626,102.09644 211.89745,87.742979 C 219.2603,83.919619 226.20343,80.791409 227.32665,80.791409 C 230.28017,80.791409 230.86459,78.549549 230.97987,66.777679 C 231.08203,56.345749 231.11943,56.190139 235.78711,46.777678 C 243.24344,31.741846 249.07964,26.655173 266.32024,20.16583 C 271.368,18.265857 274.5586,17.791411 282.28793,17.791411 C 292.99073,17.791411 308.9848,19.438587 312.08283,20.859889 C 323.04916,25.890973 327.77531,25.90218 333.81481,20.911422 C 336.39724,18.777428 342.50326,14.969065 347.38375,12.448393 C 354.95918,8.5358351 357.42818,7.7677091 364.26043,7.1979211 C 379.28435,5.9449741 392.82278,9.8366931 407.01293,19.487429 C 417.79465,26.820092 421.74791,30.74055 428.24093,40.539262 C 431.24687,45.07558 434.46601,49.176479 435.39456,49.652369 C 436.32311,50.128259 439.69721,50.811319 442.89256,51.170269 C 464.92642,53.645499 482.30913,78.544179 478.60541,102.32474 C 476.96019,112.8882 474.89644,119.16097 472.05896,122.22267 C 469.03282,125.48793 468.05046,129.68757 469.82069,131.79141 C 470.51487,132.61641 472.84123,134.18795 474.99038,135.28373 C 481.13008,138.41414 487.4695,145.26121 490.54475,152.08369 C 494.47006,160.79201 494.89177,163.65629 493.55093,172.50186 C 491.4659,186.25691 485.66748,194.47131 471.01949,204.4213 C 461.70253,210.75006 460.50048,212.95675 463.04833,219.0546 C 465.02314,223.78097 465.0105,233.51246 463.02067,240.35723 C 461.2755,246.36041 456.2639,251.53997 447.1688,256.7404 C 439.23417,261.27727 434.02908,262.58615 420.92879,263.33872 C 406.91305,264.14388 401.90666,263.28748 390.692,258.16638 C 386.62704,256.31015 382.7325,254.79141 382.03746,254.79141 C 381.34242,254.79141 379.32718,257.37891 377.55915,260.54141 C 375.79112,263.70391 371.29813,270.56641 367.57472,275.79141 C 360.189,286.15568 350.80109,294.14802 342.58283,297.06809 C 336.20705,299.3335 324.8013,300.80726 312.58283,300.94445 C 303.41317,301.0474 301.44308,300.75762 297.03349,298.6573 C 289.48386,295.06136 280.99459,289.20105 272.35419,281.62069 C 263.94659,274.24458 261.59268,273.21441 255.4064,274.20363 C 252.24029,274.70991 248.94138,276.82198 240.70361,283.61681 C 234.86218,288.43505 226.48283,295.12301 222.08283,298.47893 C 217.68283,301.83485 210.70782,307.60829 206.58282,311.3088 C 197.43133,319.51855 144.51792,370.74236 132.08282,383.42993 C 119.77893,395.98361 100.06731,413.59411 88.595465,422.28184 C 83.361278,426.24573 78.456501,430.23869 77.695961,431.15509 C 74.39616,435.1311 43.367253,458.99285 40.384351,459.84833 C 35.850613,461.14859 33.051865,460.94568 26.082823,458.81149 z "
       style="fill:#000000" />
    <path
       d="M 334.09984,282.78168 C 340.2769,279.24752 343.71936,275.06926 346.55549,267.66372 C 348.42338,262.78639 348.55933,260.86332 348.03102,246.79141 C 347.18181,224.17225 346.07467,217.56754 341.74494,209.29141 C 339.73078,205.44141 337.81054,202.06641 337.47774,201.79141 C 337.14494,201.51641 336.29675,199.49141 335.59287,197.29141 C 333.68927,191.34166 329.90124,184.95472 323.6775,177.2011 C 323.04843,176.41739 319.47278,176.51104 310.96218,177.53411 C 299.55452,178.90543 287.85812,182.33431 272.08283,188.93186 C 269.33283,190.08196 263.97747,192.3295 260.18203,193.92639 C 251.91443,197.40488 242.20783,203.06899 238.08283,206.82198 C 236.43283,208.32317 234.02171,210.09727 232.72479,210.76442 C 230.27049,212.02694 223.5471,225.1127 223.62475,228.47587 C 223.68824,231.22593 226.76148,236.37959 229.71752,238.69313 C 234.88366,242.7364 246.20636,247.65222 253.93979,249.20938 C 268.22051,252.08486 271.93062,251.11616 279.77149,242.46475 C 283.74898,238.0761 284.7349,237.45839 286.27149,238.39227 C 288.44976,239.71614 289.1903,244.35453 287.54072,246.34215 C 286.88807,247.12855 286.12657,250.60637 285.84849,254.07065 C 285.40714,259.56885 285.69749,261.06338 288.13303,265.83038 C 291.39994,272.22455 296.80209,279.23374 300.15812,281.4327 C 304.11491,284.02529 311.64096,285.60786 320.4611,285.70199 C 328.03141,285.78279 329.34667,285.50116 334.09984,282.78168 z M 426.55958,239.32684 C 435.15937,234.43636 437.92688,231.11806 440.09931,223.09246 C 441.6337,217.42397 441.72089,215.75329 440.68542,211.86236 C 440.01637,209.34834 438.81301,206.2847 438.01128,205.05427 C 436.2609,202.36796 430.36641,199.21664 425.32195,198.27029 C 421.18692,197.49456 419.27371,195.76054 420.11987,193.55547 C 420.58786,192.33592 422.99189,192.08646 433.38713,192.17872 C 444.38772,192.27636 446.54641,192.02437 449.55483,190.29141 C 456.68247,186.18563 459.8687,180.64578 459.99297,172.14282 C 460.07498,166.53127 459.73346,165.48861 456.08283,160.2053 C 453.69247,156.74589 449.39117,152.46502 445.39397,149.56719 L 438.70511,144.71802 L 423.39397,144.51155 C 411.3057,144.34855 406.60939,144.68844 401.08283,146.12632 C 379.25336,151.80582 348.14739,165.1763 346.46421,169.60339 C 345.35848,172.51171 347.25966,179.36588 353.07602,193.44041 C 360.41474,211.19876 369.09927,223.46234 380.58283,232.28326 C 391.85593,240.94252 400.2954,243.91439 412.08283,243.37565 C 419.10325,243.05478 420.87589,242.55901 426.55958,239.32684 z M 282.08283,165.98222 C 284.83283,165.41488 289.55783,164.49474 292.58283,163.93747 C 295.60783,163.38021 300.55783,162.244 303.58283,161.41257 C 306.60783,160.58113 311.29718,159.29343 314.00361,158.551 C 318.82836,157.22748 318.97886,157.06666 321.71584,150.30992 C 327.99647,134.80502 329.11227,119.9751 325.56579,99.140789 C 322.84811,83.175329 320.21775,73.940999 315.55124,63.982929 C 306.49258,44.652249 293.56605,36.706353 281.29299,42.924484 C 274.65987,46.285147 270.13828,50.297519 264.66655,57.678489 C 258.26773,66.310009 256.40346,70.779129 256.29339,77.750989 C 256.17785,85.069119 261.73292,96.484989 266.99078,99.734519 C 269.36815,101.20382 270.28996,102.39104 269.88097,103.45686 C 269.4034,104.70139 268.33884,104.89004 264.68163,104.37826 C 251.90463,102.59027 248.84391,102.57344 243.01373,104.25914 C 231.78285,107.50636 220.98242,116.3526 215.50391,126.79141 C 212.24919,132.99301 212.18411,143.11068 215.34956,150.79141 C 217.38336,155.72626 218.38996,156.77949 225.1458,161.04141 C 229.28705,163.65391 233.89203,165.82304 235.37909,165.8617 C 236.86615,165.90035 238.98283,166.33308 240.08283,166.82332 C 242.68074,167.98114 275.58813,167.32213 282.08283,165.98222 z M 356.87731,141.36755 C 360.29035,140.58443 366.45783,139.42406 370.58283,138.78895 C 377.864,137.6679 383.89735,136.23525 393.94766,133.24084 C 396.62332,132.44366 399.37581,131.79141 400.06431,131.79141 C 400.75281,131.79141 403.51363,130.92297 406.19948,129.86155 C 408.88532,128.80013 414.20258,126.72793 418.0156,125.25665 C 421.82862,123.78538 429.4818,120.45934 435.02265,117.86546 C 443.3682,113.9586 445.85521,112.24364 449.51581,107.87145 C 453.2995,103.35226 454.00014,101.80436 454.39001,97.103059 C 454.68977,93.488359 454.22625,89.567879 453.0333,85.627839 C 450.87922,78.513379 445.86068,73.530419 435.9216,68.637429 C 430.46401,65.950659 428.86754,65.597549 424.51086,66.113529 C 421.7249,66.443489 418.05724,67.405989 416.36051,68.252429 C 413.45399,69.702399 410.58283,70.271859 410.58283,69.398379 C 410.58283,66.234439 406.69934,51.861809 404.60951,47.291409 C 401.81751,41.185364 399.15849,38.141329 394.45871,35.670819 C 393.01545,34.912145 390.31545,33.406574 388.45871,32.325106 C 380.62487,27.762235 365.84455,30.836214 358.27232,38.603208 C 350.51897,46.555984 344.42716,64.790999 342.48237,85.868309 C 341.07379,101.13424 342.34438,126.89988 345.15383,140.04141 C 345.85034,143.2994 347.59685,143.49696 356.87731,141.36755 z "
       style="fill:#00ff5a;fill-opacity:1"
       id="path18428" />
  </g>
</svg>
