<?xml version="1.0" encoding="utf-8"?>
<!-- Generator: Adobe Illustrator 12.0.1, SVG Export Plug-In . SVG Version: 6.00 Build 51448)  -->
<!DOCTYPE svg PUBLIC "-//W3C//DTD SVG 1.1//EN" "http://www.w3.org/Graphics/SVG/1.1/DTD/svg11.dtd" [
	<!ENTITY ns_svg "http://www.w3.org/2000/svg">
	<!ENTITY ns_xlink "http://www.w3.org/1999/xlink">
]>
<svg  version="1.1" id="Layer_1" xmlns="&ns_svg;" xmlns:xlink="&ns_xlink;" width="326.139" height="211.806"
	 viewBox="0 0 326.139 211.806" overflow="visible" enable-background="new 0 0 326.139 211.806" xml:space="preserve">
<g>
	<path fill-rule="evenodd" clip-rule="evenodd" fill="#F6F1CD" d="M126.473,66.739c-4.309,1.252-10.94,0.182-16.146,0.538
		c0.067-1.188,2.283-0.229,3.229-0.538c-1.931-2.491-7.794-0.029-10.226-0.538c-4.512-0.944-13.254-9.626-18.298-13.455
		C72.024,42.873,61.734,35.67,48.437,25.837c-2.362-1.747-5.683-4.16-9.149-6.458c-6.316-4.188-11.889-4.164-11.302-13.993
		c9.211-5.85,16.637,1.122,23.142,5.92C75.217,29.072,103.3,48.942,126.473,66.739z M122.706,66.739
		c4.052-0.561-9.421-1.258-8.611,0C116.965,66.739,119.835,66.739,122.706,66.739z"/>
	<path fill-rule="evenodd" clip-rule="evenodd" fill="#F6F1CD" d="M108.175,82.346c-6.261,0.434-10.032,4.263-9.149,9.688
		c1.533,9.412,18.598,6.868,15.069-4.306c4.383,2.613,7.62,6.374,11.84,9.149c-1.738,6.514-6.532,9.973-11.84,12.917
		c-23.219-16.81-50.51-41.5-75.345-61.891C30.9,41.458,19.741,33.807,16.146,25.299c-3.564-8.435,3.314-14.355,8.073-19.375
		c2.316,10.565,12.681,17.201,20.989,24.218C65.987,47.693,87.081,66.785,108.175,82.346z"/>
	<path fill-rule="evenodd" clip-rule="evenodd" fill="#F6F1CD" d="M304.073,9.691c2.644,0.264,0.957,3.158,1.615,5.382
		c0.97,3.282,3.891,4.066,3.229,9.149c-0.384,2.949-3.421,7.525-5.92,9.687c-6.506,5.63-15.212,10.056-23.142,15.607
		C258.85,64.221,232.75,84.54,212.044,97.415c5.271-7.045-1.112-15.999-10.226-13.454c25.806-18.819,59.098-39.518,86.109-58.662
		C293.838,21.11,300.519,15.932,304.073,9.691z"/>
	<path fill-rule="evenodd" clip-rule="evenodd" fill="#F6F1CD" d="M34.444,18.841c11.052,5.915,21.541,14.832,32.829,22.604
		c11.086,7.633,21.967,16.511,31.215,24.218c-2.739,0.502-4.643,0.055-8.073,0.538C71.868,50.304,52.353,35.375,34.444,18.841z"/>
	<path fill-rule="evenodd" clip-rule="evenodd" fill="#F6F1CD" d="M289.543,19.379c1.376-0.023,0.656,0.4,0.538,1.076
		c-17.494,10.79-32.31,23.81-49.513,34.982c-5.434,3.528-10.896,9.127-18.299,9.688c-0.608-1.122,1.404-2.654,2.153-3.229
		C243.914,46.931,269.266,33.977,289.543,19.379z"/>
	<path fill-rule="evenodd" clip-rule="evenodd" d="M114.095,66.739c-0.81-1.258,12.663-0.561,8.611,0
		C119.835,66.739,116.965,66.739,114.095,66.739z"/>
	<path fill-rule="evenodd" clip-rule="evenodd" fill="#F6F1CD" d="M276.626,66.201C269.92,67.85,268.784,65.571,276.626,66.201
		L276.626,66.201z"/>
	<path fill-rule="evenodd" clip-rule="evenodd" fill="#F6F1CD" d="M91.491,67.277c0.746-1.227,3.746-0.201,5.382-0.538
		C96.127,67.966,93.127,66.939,91.491,67.277z"/>
	<path fill-rule="evenodd" clip-rule="evenodd" fill="#F6F1CD" d="M103.331,67.277c1.097-1.235,4.47-0.195,6.458-0.538
		C108.692,67.974,105.32,66.934,103.331,67.277z"/>
	<path fill-rule="evenodd" clip-rule="evenodd" fill="#F6F1CD" d="M221.731,67.277c1.139,0.954-1.479,2.332-2.69,3.229
		c-3.732,2.762-9.786,6.04-13.455,9.149c-23.813-0.204-56.863,1.682-82.88,0.538c-4.803-0.211-10.84,1.316-15.069,0
		c-5.357-1.667-10.032-9.221-13.455-11.84C134.542,67.988,182.625,68.107,221.731,67.277z M193.208,78.579
		c3.215-1.091,4.141-4.47,4.844-8.073c-0.625-0.452-1.443-0.71-2.691-0.539C195.132,73.196,190.363,75.621,193.208,78.579z
		 M123.782,78.041c0.916-3.023-1.185-7.328-5.382-6.996C119.641,73.93,120.318,77.379,123.782,78.041z"/>
	<path fill-rule="evenodd" clip-rule="evenodd" fill="#F6F1CD" d="M315.913,77.502c-3.221,4.951-10.54,2.479-16.146,2.691
		c-19.016,0.718-43.394,1.057-60.276,1.077c5.391-5.374,12.479-9.049,18.837-13.455C277.883,69.341,305.356,64.421,315.913,77.502z"
		/>
	<path fill-rule="evenodd" clip-rule="evenodd" fill="#F6F1CD" d="M73.731,80.193c-16.014,0.044-35.361,0.178-51.127-0.538
		c-4.996-0.227-12.584,1.579-15.069-3.229c15.159-8.19,34.743-7.425,53.818-7.535C64.803,73.335,70.691,75.34,73.731,80.193z"/>
	<path fill-rule="evenodd" clip-rule="evenodd" d="M195.36,69.968c1.248-0.171,2.066,0.087,2.691,0.539
		c-0.703,3.603-1.629,6.982-4.844,8.073C190.363,75.621,195.132,73.196,195.36,69.968z M194.284,76.964
		c0.47-1.527,2.745-4.04,1.614-5.382C195.636,73.316,192.984,75.454,194.284,76.964z"/>
	<path fill-rule="evenodd" clip-rule="evenodd" d="M118.4,71.044c4.197-0.332,6.298,3.973,5.382,6.996
		C120.318,77.379,119.641,73.93,118.4,71.044z M123.244,76.964c-0.435-1.562-1.787-4.999-3.229-3.767
		C121.371,74.173,121.545,76.332,123.244,76.964z"/>
	<path fill-rule="evenodd" clip-rule="evenodd" fill="#F6F1CD" d="M195.898,71.583c1.131,1.342-1.145,3.855-1.614,5.382
		C192.984,75.454,195.636,73.316,195.898,71.583z"/>
	<path fill-rule="evenodd" clip-rule="evenodd" fill="#F6F1CD" d="M120.015,73.197c1.442-1.231,2.794,2.205,3.229,3.767
		C121.545,76.332,121.371,74.173,120.015,73.197z"/>
	<path fill-rule="evenodd" clip-rule="evenodd" fill="#F6F1CD" d="M61.891,81.808c-1.019-0.955-3.555-0.392-5.382-0.538
		C55.057,80.769,62.451,79.72,61.891,81.808z"/>
	<path fill-rule="evenodd" clip-rule="evenodd" fill="#F6F1CD" d="M203.434,80.731c-24.511,1.728-59.031,1.369-86.648,1.077
		c-1.244-0.013-5.066,0.12-5.92,0c-3.247-0.456,2.056-0.568,1.615-0.538c25.031-1.717,52.952,1.286,78.036,0
		C193.922,80.19,199.181,80.964,203.434,80.731z"/>
	<path fill-rule="evenodd" clip-rule="evenodd" fill="#F6F1CD" d="M1.615,81.27c24.053,1.953,50.698,1.425,73.731,0.538
		c3.078-0.119,10.033,6.813,12.917,9.149c3.942,3.193,7.718,6.14,10.764,9.688c-25.223,0.016-46.439-0.214-72.655-1.077
		c-10.429-0.343-24.128,2.212-23.68-9.687C2.848,85.724,5.166,84.517,1.615,81.27z M32.291,89.881
		c1.006,0.429,1.971,0.899,3.229,1.076c1.236-1.183,0.874-1.788,0-3.229C33.78,88.275,32.704,87.346,32.291,89.881z M76.422,92.034
		c1.645,0.389,1.961-0.55,3.229-0.539c0.041-0.938-0.12-1.674-0.538-2.152c-2.047-0.792-0.106,2.406-2.153,1.614
		c-0.092-0.805,0.192-1.986-0.538-2.153C75.686,89.493,75.686,91.345,76.422,92.034z"/>
	<path fill-rule="evenodd" clip-rule="evenodd" fill="#F6F1CD" d="M44.131,81.808c1.628-1.242,5.551-0.19,8.073-0.538
		C50.576,82.512,46.653,81.459,44.131,81.808z"/>
	<path fill-rule="evenodd" clip-rule="evenodd" fill="#F6F1CD" d="M278.779,82.346c2.52-1.248,7.349-0.186,10.764-0.538
		c3.588,0,7.176,0,10.764,0C294.205,83.062,285.776,81.989,278.779,82.346z"/>
	<path fill-rule="evenodd" clip-rule="evenodd" fill="#F6F1CD" d="M200.742,82.884c-5.994,4.769-13.088,8.44-18.836,13.455
		c-0.698,2.169,1.541,4.151,0.538,4.844c-15.803,0.375-36.143,0.204-55.971-0.538c2.765-9.278-11.968-11.162-13.993-17.222
		C141.132,83.175,171.263,82.613,200.742,82.884z M153.921,91.495c0.407,1.386,1.718,1.87,3.767,1.615
		c-0.005-1.43,0.203-3.074-0.538-3.767C155.141,89.127,153.992,89.772,153.921,91.495z"/>
	<path fill-rule="evenodd" clip-rule="evenodd" fill="#F6F1CD" d="M322.91,83.422c-0.576,2.756-1.111,2.208-3.229,3.229
		c0.113,3.325,3.343,0.215,2.691,4.305c-0.183,1.621-1.893,3.332-2.691,2.691c-0.937,2.731,2.336,1.252,2.153,3.229
		c-8.774,5.637-31.509,3.366-52.204,4.306c-22.843,1.038-38.811-0.239-59.738,0c8.002-5.991,16.397-11.587,24.756-17.222
		C268.542,83.629,293.575,84.456,322.91,83.422z M255.099,87.728c-0.028-0.926,0.414-1.379,1.076-1.615
		c1.081,1.098-0.237,1.056-0.538,2.153c1.686,0.25,2.402-0.468,2.153-2.153c-0.637-0.62-1.902-0.609-3.229-0.538
		C254.493,86.922,253.533,87.26,255.099,87.728z M233.571,93.11c1.126,0.31,1.536,1.334,3.229,1.076
		c1.456-1.183,0.147-1.788,1.076-3.229C236.546,89.102,232.737,89.736,233.571,93.11z M284.161,94.186
		c2.138,0.344,2.904-0.683,3.767-1.614C287.668,87.625,280.156,90.799,284.161,94.186z M255.099,94.186
		c-0.258,1.693,0.767,2.104,1.076,3.229c2.186,0.212,3.75-0.197,3.768-2.152C259.8,93.47,256.427,93.127,255.099,94.186z"/>
	<path fill-rule="evenodd" clip-rule="evenodd" fill="#F6F1CD" d="M208.815,97.415c-0.631-0.086-0.454-0.981-0.538-1.614
		c-4.743,1.97-8.762-3.519-5.921-7.535c-5.045,0.054-2.451,12.202,5.383,9.149c-6.33,5.102-12.279-7.005-6.459-11.302
		C208.941,80.458,217.958,92.764,208.815,97.415z M209.354,93.11c1.082-3.195-0.638-5.945-4.844-5.382
		C200.547,90.684,205.511,96.43,209.354,93.11z"/>
	<path fill-rule="evenodd" clip-rule="evenodd" d="M254.561,85.575c1.327-0.071,2.593-0.082,3.229,0.538
		c0.249,1.685-0.468,2.403-2.153,2.153c0.301-1.097,1.619-1.055,0.538-2.153c-0.662,0.235-1.104,0.689-1.076,1.615
		C253.533,87.26,254.493,86.922,254.561,85.575z"/>
	<path fill-rule="evenodd" clip-rule="evenodd" d="M204.51,87.728c4.206-0.563,5.926,2.187,4.844,5.382
		C205.511,96.43,200.547,90.684,204.51,87.728z M205.048,93.11c2.011,0.575,1.534-1.336,3.229-1.076
		c0.07-1.327,0.081-2.593-0.538-3.229C205.209,88.498,203.534,91.069,205.048,93.11z"/>
	<path fill-rule="evenodd" clip-rule="evenodd" d="M76.422,88.804c0.73,0.167,0.446,1.348,0.538,2.153
		c2.047,0.792,0.105-2.406,2.153-1.614c0.418,0.479,0.579,1.215,0.538,2.152c-1.268-0.012-1.584,0.927-3.229,0.539
		C75.686,91.345,75.686,89.493,76.422,88.804z"/>
	<path fill-rule="evenodd" clip-rule="evenodd" fill="#F6F1CD" d="M105.484,91.495c-0.123-1.917,0.774-2.813,2.691-2.691
		C110.07,90.657,107.148,93.203,105.484,91.495z"/>
	<path fill-rule="evenodd" clip-rule="evenodd" fill="#F6F1CD" d="M207.739,88.804c0.619,0.636,0.608,1.902,0.538,3.229
		c-1.695-0.26-1.219,1.651-3.229,1.076C203.534,91.069,205.209,88.498,207.739,88.804z"/>
	<path fill-rule="evenodd" clip-rule="evenodd" d="M237.877,90.957c-0.929,1.441,0.38,2.046-1.076,3.229
		c-1.693,0.258-2.104-0.766-3.229-1.076C232.737,89.736,236.546,89.102,237.877,90.957z M234.647,93.11
		c1.45-0.037,2.587-1.23,1.615-2.153C234.845,90.795,234.496,91.702,234.647,93.11z"/>
	<path fill-rule="evenodd" clip-rule="evenodd" d="M287.928,92.572c-0.862,0.931-1.629,1.958-3.767,1.614
		C280.156,90.799,287.668,87.625,287.928,92.572z M284.161,91.495c0,0.359,0,0.718,0,1.077c0.328,0.03,0.637,0.081,0.538,0.538
		c0.358,0,0.717,0,1.076,0c0.03-0.328,0.08-0.637,0.538-0.538c0-0.359,0-0.718,0-1.077c-0.328-0.03-0.638-0.08-0.538-0.538
		c-0.359,0-0.718,0-1.076,0C284.668,91.285,284.618,91.594,284.161,91.495z"/>
	<path fill-rule="evenodd" clip-rule="evenodd" fill="#F6F1CD" d="M236.263,90.957c0.972,0.923-0.165,2.116-1.615,2.153
		C234.496,91.702,234.845,90.795,236.263,90.957z"/>
	<path fill-rule="evenodd" clip-rule="evenodd" fill="#F6F1CD" d="M284.699,90.957c0.358,0,0.717,0,1.076,0
		c-0.1,0.458,0.21,0.508,0.538,0.538c0,0.359,0,0.718,0,1.077c-0.458-0.099-0.508,0.21-0.538,0.538c-0.359,0-0.718,0-1.076,0
		c0.099-0.458-0.21-0.508-0.538-0.538c0-0.359,0-0.718,0-1.077C284.618,91.594,284.668,91.285,284.699,90.957z"/>
	<path fill-rule="evenodd" clip-rule="evenodd" d="M259.942,95.263c-0.018,1.956-1.582,2.364-3.768,2.152
		c-0.31-1.125-1.334-1.536-1.076-3.229C256.427,93.127,259.8,93.47,259.942,95.263z M256.175,94.725c0,0.358,0,0.717,0,1.076
		c0.329,0.03,0.638,0.081,0.539,0.538c0.358,0,0.717,0,1.076,0c0.03-0.328,0.08-0.637,0.538-0.538c0-0.359,0-0.718,0-1.076
		c-0.328-0.031-0.638-0.081-0.538-0.539c-0.359,0-0.718,0-1.076,0C256.683,94.515,256.633,94.823,256.175,94.725z"/>
	<path fill-rule="evenodd" clip-rule="evenodd" fill="#F6F1CD" d="M256.714,94.186c0.358,0,0.717,0,1.076,0
		c-0.1,0.458,0.21,0.508,0.538,0.539c0,0.358,0,0.717,0,1.076c-0.458-0.099-0.508,0.21-0.538,0.538c-0.359,0-0.718,0-1.076,0
		c0.099-0.458-0.21-0.508-0.539-0.538c0-0.359,0-0.718,0-1.076C256.633,94.823,256.683,94.515,256.714,94.186z"/>
	<path fill-rule="evenodd" clip-rule="evenodd" fill="#F6F1CD" d="M6.997,100.106c2.586,0.104,2.894,2.487,3.229,4.843
		c-1.297,0.221-1.17-0.983-2.691-0.538C7.209,103.123,6.761,101.957,6.997,100.106z"/>
	<path fill-rule="evenodd" clip-rule="evenodd" fill="#F6F1CD" d="M12.378,100.106c12.601,2.643,32.828,0.131,48.437,1.614
		c1.331,0.126,4.938-0.251,4.844,2.153c-0.319,2.965-4.04,1.533-5.382,1.615c-11.796,0.72-33.769,1.982-46.284,0
		C13.855,103.293,11.987,102.83,12.378,100.106z"/>
	<path fill-rule="evenodd" clip-rule="evenodd" fill="#F6F1CD" d="M319.143,101.183c0.229,11.394-20.444,5.633-26.909,6.996
		c0.186-2.871-0.078-3.746,0.538-5.382C303.524,103.069,310.023,101.909,319.143,101.183z"/>
	<path fill-rule="evenodd" clip-rule="evenodd" fill="#F6F1CD" d="M89.877,103.874c-8.966-0.252-14.007,2.154-23.142,0.538
		c-0.687-3.5,3.641-2.089,5.92-2.153C78.206,102.104,87.054,101.248,89.877,103.874z"/>
	<path fill-rule="evenodd" clip-rule="evenodd" fill="#F6F1CD" d="M102.793,102.797c2.036,1.51,1.879,7.007,1.615,9.149
		c-2.316-1.092-1.365-5.452-2.153-8.073c-3.767,0-7.535,0-11.302,0C92.064,101.217,100.124,103.342,102.793,102.797z"/>
	<path fill-rule="evenodd" clip-rule="evenodd" fill="#F6F1CD" d="M188.364,109.793c-20.276,1.069-39.721,1.154-61.891,1.077
		c-0.744-2.126-0.779-4.962-1.076-7.535c7.575,0.59,17.881-0.495,26.909,0C167.699,104.179,186.338,99.261,188.364,109.793z"/>
	<path fill-rule="evenodd" clip-rule="evenodd" fill="#F6F1CD" d="M213.12,102.797c0.718,0,1.436,0,2.153,0
		c0.603,1.724,1.956,8.251-2.153,6.997C213.27,106.311,212.078,104.834,213.12,102.797z"/>
	<path fill-rule="evenodd" clip-rule="evenodd" fill="#F6F1CD" d="M291.157,103.335c0,1.614,0,3.229,0,4.843
		c-4.719,0.405-14.701,1.774-20.451,1.077c0.645-1.509,0.592-3.714,0.538-5.92C278.362,103.945,286.864,102.218,291.157,103.335z"/>
	<path fill-rule="evenodd" clip-rule="evenodd" fill="#F6F1CD" d="M123.782,103.335c1.733,1.121,1.104,6.924,1.076,8.073
		C123.705,109.512,123.731,106.437,123.782,103.335z"/>
	<path fill-rule="evenodd" clip-rule="evenodd" fill="#F6F1CD" d="M101.179,104.95c1.059,1.453,0.32,4.703,0.538,6.997
		c-14.562,0.646-32.737,1.636-49.513,1.614c-0.766-1.925-1.538-3.844-1.615-6.458C67.808,106.741,83.241,104.593,101.179,104.95z"/>
	<path fill-rule="evenodd" clip-rule="evenodd" fill="#F6F1CD" d="M7.535,106.026c6.26,0.916,12.674,1.678,19.913,1.614
		c0.22,2.155,1.897,4.971,1.077,6.458c-5.724-0.119-13.3-0.368-19.913-1.077C7.771,111.171,7.347,108.904,7.535,106.026z"/>
	<path fill-rule="evenodd" clip-rule="evenodd" fill="#F6F1CD" d="M105.484,106.026c5.078,5.456,12.144,5.456,17.222,0
		c-0.318,2.291,0.387,3.56,0.538,5.382c-5.779-0.039-11.609-0.128-16.684,0.538C105.853,110.321,106.191,107.651,105.484,106.026z"
		/>
	<path fill-rule="evenodd" clip-rule="evenodd" fill="#F6F1CD" d="M48.975,107.103c0.745,1.767,1.269,3.754,1.077,6.458
		c-7.682-0.441-11.157,0-19.913,0c-0.396-2.115-1.122-3.9-1.614-5.92C37.025,107.997,41.432,107.062,48.975,107.103z"/>
	<path fill-rule="evenodd" clip-rule="evenodd" fill="#F6F1CD" d="M316.452,108.717c-0.256,2.974-1.247,5.211-4.306,5.382
		c-0.167-2.14,1.243-2.704,1.076-4.844C314.867,109.644,315.184,108.705,316.452,108.717z"/>
	<path fill-rule="evenodd" clip-rule="evenodd" fill="#F6F1CD" d="M309.993,109.255c1.725,0.354,0.941,6.862-2.152,5.92
		C308.293,112.937,308.578,110.531,309.993,109.255z"/>
	<path fill-rule="evenodd" clip-rule="evenodd" fill="#F6F1CD" d="M307.841,109.793c-0.261,2.251-1.034,3.989-1.614,5.92
		c-18.566,1.205-34.096,2.644-49.513,1.077c0.004-2.762-0.788-3.531,0-5.92C274.817,111.572,290.006,109.36,307.841,109.793z"/>
	<path fill-rule="evenodd" clip-rule="evenodd" fill="#F6F1CD" d="M231.957,110.87c0.948,2.325,0.495,6.486,0,7.534
		c-16.377,0.489-41.611,0.926-61.353,0c-0.386-2.791-0.274-3.188-0.538-6.458C188.631,111.221,212.304,110.802,231.957,110.87z"/>
	<path fill-rule="evenodd" clip-rule="evenodd" fill="#F6F1CD" d="M255.637,110.87c-0.216,3.222-0.021,3.536-0.538,6.458
		c-7.707-0.441-16.053,1.045-22.065,0.538c0.339-1.339,0.625-3.875,0.538-6.996C243.962,110.988,249.251,110.092,255.637,110.87z"/>
	<path fill-rule="evenodd" clip-rule="evenodd" fill="#F6F1CD" d="M168.451,111.408c0.709,1.982,1.217,4.166,1.076,6.996
		c-9.734,1.017-13.804,0.665-22.065,1.077c-0.779-2.091-1.234-4.506-1.076-7.535C154.942,111.876,161.344,112.155,168.451,111.408z"
		/>
	<path fill-rule="evenodd" clip-rule="evenodd" fill="#F6F1CD" d="M145.31,112.484c-0.217,2.549,0.961,3.704,0.538,6.458
		c-17.714,1.955-34.987,1.234-53.818,1.615c-0.661-2.03-1.085-4.297-1.076-6.997C110.676,113.246,129.844,111.6,145.31,112.484z"/>
	<path fill-rule="evenodd" clip-rule="evenodd" fill="#F6F1CD" d="M6.458,113.022c1.074-1.384,2.182,1.729,2.153,3.229
		C7.404,115.665,7.665,113.61,6.458,113.022z"/>
	<path fill-rule="evenodd" clip-rule="evenodd" fill="#F6F1CD" d="M89.338,113.561c1.008,3.126,1.015,5.12,0.539,6.997
		c-27.75,2.006-45,1.64-71.041-0.538c-0.474-1.5-0.671-3.275-1.614-4.306c15.444-1.689,31.292-0.92,48.975-1.076
		c0.572,2.198-0.035,3.984,1.076,6.458c1.754-1.497-0.661-5.426,0.538-6.458C73.562,114.304,82.045,113.935,89.338,113.561z"/>
	<path fill-rule="evenodd" clip-rule="evenodd" fill="#F6F1CD" d="M316.99,113.561c2.125,1.006-0.079,5.154-1.077,7.535
		c-6.888,1.902-16.258,1.322-24.218,2.153c-0.901-0.893-0.429-3.16-0.538-4.844C299.975,116.997,311.013,117.81,316.99,113.561z"/>
	<path fill-rule="evenodd" clip-rule="evenodd" fill="#F6F1CD" d="M9.688,114.637c1.256,0,2.512,0,3.767,0
		c0.229,1.924,1.434,2.872,1.077,5.382c-1.646,0.39-1.583-0.929-3.229-0.538C10.662,117.968,10.091,116.386,9.688,114.637z"/>
	<path fill-rule="evenodd" clip-rule="evenodd" fill="#F6F1CD" d="M15.607,115.175c1.169,1.163,1.522,3.142,2.153,4.844
		C15.923,119.524,16.092,117.022,15.607,115.175z"/>
	<path fill-rule="evenodd" clip-rule="evenodd" fill="#F6F1CD" d="M269.092,118.942c0.496,2.578,0.144,2.039,0.538,5.382
		c-6.4,2.21-16.701,0.521-23.68,2.153c1.143,2.132,4.16-0.081,8.61,0.539c0.603,1.483,0.358,4.449,0,6.458
		c-7.538-0.183-14.194,0.516-20.989,1.076c-1.059-1.452-0.32-4.703-0.538-6.996c6.655-0.274,8.298,0.048,11.84-0.538
		c-4.9-2.094-19.844,0.847-27.985-1.077c-0.469-1.557-0.469-4.364,0-5.92C232.439,120.203,254.109,117.068,269.092,118.942z"/>
	<path fill-rule="evenodd" clip-rule="evenodd" fill="#F6F1CD" d="M290.081,117.866c-0.349,2.636-0.094,2.528,0,5.382
		c-5.591,0.608-12.475,1.587-19.375,1.615c0.411-2.346-0.666-4.985,0-5.92C278.134,118.932,284.026,117.967,290.081,117.866z"/>
	<path fill-rule="evenodd" clip-rule="evenodd" fill="#F6F1CD" d="M191.055,120.019c0.511,2.741,0.511,4.255,0,6.997
		c-18.763,0.252-41.866,1.781-62.967,0.538c-0.266-1.888-0.803-3.503-0.539-5.92C148.559,119.818,168.653,119.858,191.055,120.019z"
		/>
	<path fill-rule="evenodd" clip-rule="evenodd" fill="#F6F1CD" d="M211.506,120.019c-0.198,2.133,0.493,5.158-0.538,6.458
		c-5.114,0.268-11.354-0.591-15.607,0.539c-1.061-1.628-1.52-4.888-0.538-6.997C200.384,120.019,205.944,120.019,211.506,120.019z"
		/>
	<path fill-rule="evenodd" clip-rule="evenodd" fill="#F6F1CD" d="M212.582,120.019c0.897,0,1.794,0,2.691,0
		c-0.375,2.137,0.938,5.961-1.076,6.458C211.345,126.638,213.042,122.25,212.582,120.019z"/>
	<path fill-rule="evenodd" clip-rule="evenodd" fill="#F6F1CD" d="M192.132,120.557c2.297,0.214,0.513,4.51,1.076,6.458
		C191.188,125.52,192.811,123.561,192.132,120.557z"/>
	<path fill-rule="evenodd" clip-rule="evenodd" fill="#F6F1CD" d="M10.764,121.634c6.007-1.338,13.093,0.896,19.375,1.076
		c0.726,2.808,0.963,2.857,1.077,5.92c-6.859,0.042-13.928,0.293-19.375-1.076C11.457,125.604,11.637,123.093,10.764,121.634z"/>
	<path fill-rule="evenodd" clip-rule="evenodd" fill="#F6F1CD" d="M125.397,121.095c1.927,0.943,1.185,4.555,1.614,6.997
		C124.355,127.877,125.753,123.609,125.397,121.095z"/>
	<path fill-rule="evenodd" clip-rule="evenodd" fill="#F6F1CD" d="M102.793,121.634c0.349,2.026,1.184,5.684,0,7.534
		c-14.923-1.253-34.036,1.021-48.437,0c-0.685-1.647-0.763-3.901-1.614-5.382C67.73,123.052,84.264,121.749,102.793,121.634z"/>
	<path fill-rule="evenodd" clip-rule="evenodd" fill="#F6F1CD" d="M103.87,121.634c0.538,0,1.076,0,1.614,0
		c1.06,1.452,0.32,4.703,0.539,6.996C103.576,128.026,104.808,123.745,103.87,121.634z"/>
	<path fill-rule="evenodd" clip-rule="evenodd" fill="#F6F1CD" d="M51.666,122.71c-0.284,2.507,1.671,4.799,0.539,6.458
		c-7.162-0.458-13.625,0.396-19.375-0.538c-0.354-1.978-1.045-3.619-1.076-5.92C40.125,122.835,44.681,121.933,51.666,122.71z"/>
	<path fill-rule="evenodd" clip-rule="evenodd" fill="#F6F1CD" d="M309.993,123.248c1.256,0,2.512,0,3.768,0
		c-0.612,1.899-0.594,4.429-1.076,6.458c-2.142-0.348-2.164,1.424-4.306,1.077C308.207,127.561,309.671,125.975,309.993,123.248z"/>
	<path fill-rule="evenodd" clip-rule="evenodd" fill="#F6F1CD" d="M303.535,123.786c1.033,2.155-1.008,5.287-1.076,8.073
		c-14.986,1.237-33.434,2.486-46.284,1.077c0-1.974,0-3.947,0-5.92C269.49,126.752,286.318,124.854,303.535,123.786z"/>
	<path fill-rule="evenodd" clip-rule="evenodd" fill="#F6F1CD" d="M305.688,123.786c0.538,0,1.076,0,1.614,0
		c-0.325,3.765,0.191,5.821-2.153,8.073C302.421,130.343,305.655,126.068,305.688,123.786z"/>
	<path fill-rule="evenodd" clip-rule="evenodd" fill="#F6F1CD" d="M231.957,127.554c0,2.332,0,4.664,0,6.996
		c-21.058-0.106-38.835,3.177-60.814,0.538c0-1.973,0-3.946,0-5.92C192.878,128.108,209.629,127.254,231.957,127.554z"/>
	<path fill-rule="evenodd" clip-rule="evenodd" fill="#F6F1CD" d="M147.462,128.63c6.415,0.969,15.604,0.711,22.065,0
		c1.083,1.608,0.305,5.078,0.539,7.535c-7.355,0-14.711,0-22.066,0C147.188,134.445,147.258,129.648,147.462,128.63z"/>
	<path fill-rule="evenodd" clip-rule="evenodd" fill="#F6F1CD" d="M13.455,129.168c1.867-0.432,2.069,0.802,3.768,0.538
		c0.718,2.438,0.723,3.501,1.076,5.382c-1.059,1.068-3.074,0.343-4.305,0C14.237,132.769,12.526,130.489,13.455,129.168z"/>
	<path fill-rule="evenodd" clip-rule="evenodd" fill="#F6F1CD" d="M145.848,129.168c1.06,1.452,0.32,4.703,0.538,6.997
		c-19.146,1.092-39.77,2.081-54.356,1.076c-0.266-3.199,0.565-4.799,0-6.996C110.266,130.056,125.893,128.804,145.848,129.168z"/>
	<path fill-rule="evenodd" clip-rule="evenodd" fill="#F6F1CD" d="M19.375,129.706c2.812,0.596,1.97,4.847,3.229,6.997
		C19.205,136.916,19.266,131.258,19.375,129.706z"/>
	<path fill-rule="evenodd" clip-rule="evenodd" fill="#F6F1CD" d="M22.065,129.706c13.235,0.754,31.483,0.377,45.208,1.077
		c-0.061,3.913,0.481,4.362,0.538,7.535c-12.423-0.286-30.364,1.308-43.055-1.615C22.819,135.411,23.192,131.809,22.065,129.706z"/>
	<path fill-rule="evenodd" clip-rule="evenodd" fill="#F6F1CD" d="M90.415,129.706c1.429,1.262-0.398,5.78,1.076,6.997
		c-5.781,2.314-14.551,0.188-22.065,1.615c-0.988-2.823-0.505-5.29-1.076-7.535C76.924,129.74,83.243,130.311,90.415,129.706z"/>
	<path fill-rule="evenodd" clip-rule="evenodd" fill="#F6F1CD" d="M313.223,137.779c-5.062,3.615-15.698,4.304-23.142,3.768
		c-0.728-1.542,0.004-5.537,0.538-7.535c8.89,0.278,16.926-0.295,22.604-3.229C315.892,131.779,312.85,135.573,313.223,137.779z"/>
	<path fill-rule="evenodd" clip-rule="evenodd" fill="#F6F1CD" d="M288.466,134.012c0.41,2.139,0.338,4.919-0.538,8.073
		c-6.352,0.106-11.414,1.502-18.298,1.077c0.234-3.465,0.532-4.753,0-8.073C276.159,134.883,283.936,134.615,288.466,134.012z"/>
	<path fill-rule="evenodd" clip-rule="evenodd" fill="#F6F1CD" d="M268.554,135.088c0,2.691,0,5.382,0,8.073
		c-15.141,0.357-33.884,0.316-51.128,0.538c-1.082-1.609-0.304-5.078-0.538-7.535C236.503,135.937,250.636,133.494,268.554,135.088z
		"/>
	<path fill-rule="evenodd" clip-rule="evenodd" fill="#F6F1CD" d="M13.455,136.703c5.897,1.638,13.07,1.999,19.913,2.691
		c0.819,1.513,0.512,4.152,1.076,5.92c-7.809,0.274-14.981-0.088-19.913-2.691C13.875,140.947,13.278,139.211,13.455,136.703z"/>
	<path fill-rule="evenodd" clip-rule="evenodd" fill="#F6F1CD" d="M211.506,136.703c-0.398,3.397,0.343,4.62-0.538,7.535
		c-5.966-0.404-10.267,0.855-16.146,0.538c-0.56-1.687,0.331-4.516,0-7.535C200.679,137.356,205.36,136.297,211.506,136.703z"/>
	<path fill-rule="evenodd" clip-rule="evenodd" fill="#F6F1CD" d="M212.582,136.703c1.077,0,2.153,0,3.229,0
		c0,2.332,0,4.664,0,6.997c-1.076,0-2.152,0-3.229,0C212.582,141.367,212.582,139.035,212.582,136.703z"/>
	<path fill-rule="evenodd" clip-rule="evenodd" fill="#F6F1CD" d="M191.593,137.779c-0.029,2.482,0.239,5.262-0.538,6.997
		c-16.669-1.861-42.307,0.978-61.353,0c0.422-2.754-0.755-3.909-0.538-6.458C148.213,136.731,171.826,136.854,191.593,137.779z"/>
	<path fill-rule="evenodd" clip-rule="evenodd" fill="#F6F1CD" d="M192.67,137.241c0.635,1.198,1.474,7.196-0.538,7.535
		C193.346,142.847,192.091,138.402,192.67,137.241z"/>
	<path fill-rule="evenodd" clip-rule="evenodd" fill="#F6F1CD" d="M127.011,137.779c2.426,0.445,1.415,4.326,1.615,6.997
		C126.449,144.082,127.191,140.47,127.011,137.779z"/>
	<path fill-rule="evenodd" clip-rule="evenodd" fill="#F6F1CD" d="M105.484,146.39c-17.395-0.861-31.029,1.69-48.975-0.538
		c-0.609-1.723-1.094-3.569-1.076-5.92c15.273-0.562,32.403-1.433,48.437-1.076C106.293,140.101,105.076,142.571,105.484,146.39z"/>
	<path fill-rule="evenodd" clip-rule="evenodd" fill="#F6F1CD" d="M108.713,138.317c5.018,1.53,11.248-0.176,16.684,0
		c0.894,1.617,0.405,4.617,1.076,6.458c-4.636,1.104-11.349,0.133-16.146,1.076C109.403,143.727,108.778,141.301,108.713,138.317z"
		/>
	<path fill-rule="evenodd" clip-rule="evenodd" fill="#F6F1CD" d="M106.022,138.855c0.538,0,1.076,0,1.614,0
		c-0.59,2.586,1.662,5.124,0,6.996C105.65,144.968,106.668,141.08,106.022,138.855z"/>
	<path fill-rule="evenodd" clip-rule="evenodd" fill="#F6F1CD" d="M34.444,139.394c6.72,0.423,13.89,0.562,18.836,0
		c1.225,1.466,1.538,3.844,1.615,6.458c-7.298,0.144-13.792-0.323-19.375-0.538C35.746,142.756,34.738,141.432,34.444,139.394z"/>
	<path fill-rule="evenodd" clip-rule="evenodd" fill="#F6F1CD" d="M310.531,141.008c-0.677,3.449-0.245,8.006-4.843,7.535
		C305.239,143.968,305.834,140.437,310.531,141.008z"/>
	<path fill-rule="evenodd" clip-rule="evenodd" fill="#F6F1CD" d="M300.307,142.623c1.059,1.453,0.32,4.703,0.538,6.997
		c-12.529,0.754-28.673,2.907-45.208,2.69c0.234-2.457-0.544-5.926,0.538-7.534C269.317,145.62,285.105,143.579,300.307,142.623z"/>
	<path fill-rule="evenodd" clip-rule="evenodd" fill="#F6F1CD" d="M302.459,142.623c0.538,0,1.076,0,1.614,0
		c-0.296,2.394,0.834,6.216-1.076,6.997C300.753,148.181,303.048,145.549,302.459,142.623z"/>
	<path fill-rule="evenodd" clip-rule="evenodd" fill="#F6F1CD" d="M254.561,144.775c0,2.512,0,5.023,0,7.534
		c-8.63,0.222-14.081,0.498-21.527,0c0-2.511,0-5.022,0-7.534C240.501,145.39,248.498,143.786,254.561,144.775z"/>
	<path fill-rule="evenodd" clip-rule="evenodd" fill="#F6F1CD" d="M19.375,145.313c0.746,1.767,1.269,3.754,1.077,6.458
		c-1.131,0.973-2.757-0.821-4.306-1.076c0.04-2.013-0.226-3.72-1.076-4.844C15.437,143.889,17.212,145.967,19.375,145.313z"/>
	<path fill-rule="evenodd" clip-rule="evenodd" fill="#F6F1CD" d="M170.604,145.313c1.059,1.452,0.32,4.703,0.538,6.996
		c-7.946-0.129-15.232,1.054-22.604,0.539c-0.03-2.482,0.238-5.262-0.539-6.997C156.06,146.197,162.968,145.391,170.604,145.313z"/>
	<path fill-rule="evenodd" clip-rule="evenodd" fill="#F6F1CD" d="M21.527,145.852c4.116-0.762,3.316,5.842,3.229,7.535
		c-0.479-0.419-1.215-0.579-2.152-0.538C21.643,151.118,22.291,147.779,21.527,145.852z"/>
	<path fill-rule="evenodd" clip-rule="evenodd" fill="#F6F1CD" d="M146.924,145.852c0.323,2.798,0.459,4.642,0,6.997
		c-16.531,0.094-36.521,1.759-53.818,0.538c0.067-2.221-0.936-3.37-0.539-5.921C112.737,146.898,126.735,146.499,146.924,145.852z"
		/>
	<path fill-rule="evenodd" clip-rule="evenodd" fill="#F6F1CD" d="M25.833,146.39c12.325,0.719,28.595,0.973,41.978,1.076
		c1.639,0.894,1.353,5.906,0.539,7.535c-13.881-0.626-27.835-0.452-41.979-1.614C26.693,150.553,25.972,148.763,25.833,146.39z"/>
	<path fill-rule="evenodd" clip-rule="evenodd" fill="#F6F1CD" d="M92.029,153.925c-5.99,0.671-14.875,0.558-21.527,1.076
		c-0.961-1.73-0.313-5.068-1.076-6.996C76.644,150.13,95.125,141.76,92.029,153.925z"/>
	<path fill-rule="evenodd" clip-rule="evenodd" fill="#F6F1CD" d="M310.531,148.005c1.394,1.604,0.161,5.16-0.538,6.458
		c-5.134,2.579-12.644,2.784-19.912,3.229c-0.323-2.729-0.564-3.479,0-5.92C297.741,151.36,305.763,151.309,310.531,148.005z"/>
	<path fill-rule="evenodd" clip-rule="evenodd" fill="#F6F1CD" d="M288.466,151.771c0.192,2.704-0.143,4.881-1.076,6.458
		c-7.135-0.094-10.526,0.838-18.298,0.539c-0.33-2.617-0.33-2.765,0-5.382C275.484,152.783,282.104,152.405,288.466,151.771z"/>
	<path fill-rule="evenodd" clip-rule="evenodd" fill="#F6F1CD" d="M16.146,152.31c5.104,2.252,12.203,2.508,18.836,3.229
		c0.733,1.42,0.636,3.669,1.077,5.382c-5.999,0.865-12.805-0.373-18.298-1.614C16.862,157.513,15.497,153.925,16.146,152.31z"/>
	<path fill-rule="evenodd" clip-rule="evenodd" fill="#F6F1CD" d="M191.055,155.001c0,1.256,0,2.512,0,3.768
		c-12.915,2.648-41.513,2.229-59.738,0.538c0-1.615,0-3.229,0-4.844C151.363,154.335,170.031,152.648,191.055,155.001z"/>
	<path fill-rule="evenodd" clip-rule="evenodd" fill="#F6F1CD" d="M267.478,153.925c0,1.614,0,3.229,0,4.844
		c-18.99,2.267-34.202,3.174-51.128,0.538c0.804-0.868-0.464-2.698,0-4.844C231.864,153.826,256.206,153.329,267.478,153.925z"/>
	<path fill-rule="evenodd" clip-rule="evenodd" fill="#F6F1CD" d="M127.011,154.463c0.568,1.655,1.157,5.313,0.538,6.458
		c-5.662-0.28-9.811,0.953-15.607,0.538c-0.649-1.862-1.173-3.851-1.077-6.458C116.125,154.187,120.51,154.674,127.011,154.463z"/>
	<path fill-rule="evenodd" clip-rule="evenodd" fill="#F6F1CD" d="M128.626,154.463c0.538,0,1.076,0,1.614,0
		c-0.352,1.997,0.519,5.539,0,5.92C128.069,160.043,128.779,156.821,128.626,154.463z"/>
	<path fill-rule="evenodd" clip-rule="evenodd" fill="#F6F1CD" d="M210.968,154.463c0,1.794,0,3.588,0,5.382
		c-5.333,1.218-10.142,0.031-15.607,0.538c-0.955-1.019-0.392-3.555-0.538-5.382C201.733,155.187,204.139,154.196,210.968,154.463z"
		/>
	<path fill-rule="evenodd" clip-rule="evenodd" fill="#F6F1CD" d="M212.044,154.463c1.076,0,2.153,0,3.229,0
		c0,1.794,0,3.588,0,5.382c-1.695,0.604-1.219,0.049-3.229,0C212.044,158.051,212.044,156.257,212.044,154.463z"/>
	<path fill-rule="evenodd" clip-rule="evenodd" fill="#F6F1CD" d="M37.135,155.001c5.542,1.096,12.98,0.295,19.375,0.538
		c-0.416,2.568,0.842,3.464,0.538,5.92c-7.64-0.006-12.085-0.134-19.375,0C37.067,159.842,35.865,156.797,37.135,155.001z"/>
	<path fill-rule="evenodd" clip-rule="evenodd" fill="#F6F1CD" d="M106.561,155.001c0.716,1.616,0.547,4.117,0.538,6.458
		c-19.894-0.343-32.468,2.842-48.975-0.538c-0.022-1.771-0.909-2.68-0.538-4.844C75.873,156.612,88.688,154.938,106.561,155.001z"/>
	<path fill-rule="evenodd" clip-rule="evenodd" fill="#F6F1CD" d="M108.175,155.001c0.869-0.151,0.927,0.509,1.615,0.538
		c-0.054,2.206-0.106,4.411,0.538,5.92C106.99,162.105,108.089,156.053,108.175,155.001z"/>
	<path fill-rule="evenodd" clip-rule="evenodd" fill="#F6F1CD" d="M192.132,155.001c2.171-0.065,2.425,4.598,0,4.844
		C192.132,158.229,192.132,156.615,192.132,155.001z"/>
	<path fill-rule="evenodd" clip-rule="evenodd" fill="#F6F1CD" d="M307.841,157.153c1.248,1.518-0.621,3.364,0,5.92
		c-1.297-0.22-1.17,0.983-2.691,0.539C305.349,160.761,304.053,156.416,307.841,157.153z"/>
	<path fill-rule="evenodd" clip-rule="evenodd" fill="#F6F1CD" d="M298.691,158.229c2.931,0.654,0.713,4.053,1.615,5.921
		c-10.291,3.847-28.76,2.824-44.67,3.767c-1.031-1.301-0.339-4.324-0.538-6.458C269.366,160.119,284.843,159.988,298.691,158.229z"
		/>
	<path fill-rule="evenodd" clip-rule="evenodd" fill="#F6F1CD" d="M301.921,158.229c0.479,0.331,0.963,0.651,1.076,0
		c1.388,1.753-0.671,3.797,0.538,5.921c-0.626-0.088-0.957,0.118-1.076,0.538C300.625,164.299,301.248,159.429,301.921,158.229z"/>
	<path fill-rule="evenodd" clip-rule="evenodd" fill="#F6F1CD" d="M230.881,161.997c0,2.153,0,4.306,0,6.458
		c-19.196,0.287-39.295,1.276-57.586-0.538c-0.365-1.967-0.751-3.913-0.538-6.458C193.552,161.085,209.465,160.376,230.881,161.997z
		"/>
	<path fill-rule="evenodd" clip-rule="evenodd" fill="#F6F1CD" d="M19.375,161.997c0.087-0.631,0.981-0.454,1.615-0.538
		c0.431,1.742,1.939,5.21,0.538,6.996C19.002,168.11,20.796,163.446,19.375,161.997z"/>
	<path fill-rule="evenodd" clip-rule="evenodd" fill="#F6F1CD" d="M148,161.459c-0.449,3.016,0.864,5.098,0,6.996
		c-18.43,0.288-37.08,1.547-53.818,1.615c-0.777-1.735-0.509-4.515-0.538-6.997C111.734,162.507,129.487,161.603,148,161.459z"/>
	<path fill-rule="evenodd" clip-rule="evenodd" fill="#F6F1CD" d="M149.615,161.459c7.354,0,14.71,0,22.065,0
		c-0.423,2.755,0.755,3.909,0.538,6.458c-7.44,0.175-15.846,0.943-22.604,0.538C149.615,166.123,149.615,163.791,149.615,161.459z"
		/>
	<path fill-rule="evenodd" clip-rule="evenodd" fill="#F6F1CD" d="M253.484,161.459c0.997,1.155,0.363,3.942,0.538,5.92
		c-4.955,1.674-16.802,1.296-22.065,0.538c0-1.973,0-3.946,0-5.92C240.121,161.661,247.338,162.342,253.484,161.459z"/>
	<path fill-rule="evenodd" clip-rule="evenodd" fill="#F6F1CD" d="M23.142,161.997c1.645-0.389,1.961,0.551,3.229,0.538
		c-0.397,2.55,0.605,3.7,0.538,5.92c-1.076,0-2.153,0-3.229,0C23.506,166.406,22.468,163.198,23.142,161.997z"/>
	<path fill-rule="evenodd" clip-rule="evenodd" fill="#F6F1CD" d="M27.447,162.535c14.185-0.023,30.889-0.265,41.979,1.077
		c1.405,1.106-0.379,5.402,1.076,6.458c1.403-1.438,0.108-4.745,0-6.458c3.54-0.207,13.685-0.684,22.065-0.539
		c-0.322,2.834,0.399,4.624,0.539,6.997c-5.59,0.468-13.965,0.568-25.833,0.538c12.965,2.888,28.879-0.344,41.44,0.538
		c-0.406,3.276,0.86,4.88,0.539,8.072c11.937-0.972,23.325-1.006,39.826-1.076c0.511,1.784,0.835,3.785,0,5.92
		c-19.316,0.882-35.57,2.882-52.742,1.076c0.303-2.456-0.954-3.352-0.538-5.92c3.951-0.354,9.322,0.712,12.378-0.538
		c-21.767-0.062-44.529,0.479-65.12-0.538c8.201,2.024,18.275,2.176,28.524,2.153c-0.422,2.754,0.755,3.909,0.538,6.458
		c-11.939-1.604-23.551,0.09-35.52-1.615c1.994,1.773,3.661,3.874,3.767,7.535c-4.943,0.617-9.487,1.636-15.069,1.614
		c-1.738-2.029-2.392-5.143-2.691-8.61c4.546,0.118,8.461,0.867,13.455,0.538c-0.171-2.521-4.506-0.877-5.92-2.153
		c0.067-2.22-0.935-3.37-0.538-5.92c3.696,0.25,7.085,0.809,11.302,0.538c-1.728-1.859-2.569-4.605-2.691-8.072
		c6.671,0.877,16.48,0.214,21.527,1.076c-0.019,2.351-0.198,4.862,1.077,5.92c1.195-1.058-0.706-3.569,0-5.92
		c1.973,0,3.947,0,5.92,0c-8.665-3.152-25.359-1.543-37.673-2.691C27.572,167.793,28.089,164.584,27.447,162.535z"/>
	<path fill-rule="evenodd" clip-rule="evenodd" fill="#F6F1CD" d="M308.379,164.688c0.285,2.796-0.71,4.312-1.076,6.458
		c-4.778,2.397-11.541,2.811-18.298,3.229c0-2.152,0-4.305,0-6.458C295.417,166.795,302.188,166.032,308.379,164.688z"/>
	<path fill-rule="evenodd" clip-rule="evenodd" fill="#F6F1CD" d="M287.39,168.455c0,1.794,0,3.588,0,5.382
		c-6.34,1.592-12.871,1.184-19.374,1.615c0-2.153,0-4.306,0-6.459C273.354,168.534,280.179,168.399,287.39,168.455z"/>
	<path fill-rule="evenodd" clip-rule="evenodd" fill="#F6F1CD" d="M191.055,170.07c-0.415,2.568,0.842,3.464,0.538,5.92
		c-11.32,0.603-24.851-0.279-32.829,2.152c4.713,0.566,8.813-1.318,13.993,0c-0.269,2.679,0.11,3.206-0.538,4.844
		c-7.88-0.707-15.015,1.605-21.527,0.538c0-1.794,0-3.588,0-5.382c1.974,0,3.946,0,5.92,0c-5.5-2.393-15.342-0.444-22.604-1.076
		c-0.548-2.144-0.784-4.598-1.077-6.996C153.637,169.509,171.327,168.804,191.055,170.07z"/>
	<path fill-rule="evenodd" clip-rule="evenodd" fill="#F6F1CD" d="M266.938,169.532c0.015,2.346,0.321,4.984-1.076,5.92
		c-3.694,0.79-8.122,0.848-12.378,1.076c-0.961,1.729-0.313,5.068-1.076,6.996c-8.839,0.087-14.452-0.192-20.989-0.538
		c0-1.794,0-3.588,0-5.382c7.324-0.077,11.883,0.5,17.76,0c-9.335-2.404-24.076-0.285-32.829-2.152c0.362-2.622-0.947-3.57,0-5.382
		C234.02,169.382,253.546,168.956,266.938,169.532z"/>
	<path fill-rule="evenodd" clip-rule="evenodd" fill="#F6F1CD" d="M19.913,169.532c7.266-0.557,11.118,1.075,16.684,1.076
		c0.609,1.723,1.094,3.569,1.076,5.92c-4.818,1.302-11.379,1.364-16.146,0C20.471,174.714,19.971,172.345,19.913,169.532z"/>
	<path fill-rule="evenodd" clip-rule="evenodd" fill="#F6F1CD" d="M130.24,170.07c2.935,0.085,2.39,6.017,2.153,7.534
		C130.196,176.572,130.934,172.606,130.24,170.07z"/>
	<path fill-rule="evenodd" clip-rule="evenodd" fill="#F6F1CD" d="M192.67,170.07c6.414-0.155,12.711,0.258,17.76,0
		c0.833,1.102,0.833,4.817,0,5.92c-3.768,0-7.534,0-11.302,0c9.051,2.67,22.258-0.728,31.215,1.614
		c-0.146,1.827,0.416,4.363-0.538,5.382c-18.018,1.657-38.595,1.491-56.51-0.538c-0.06-2.669,0.528-2.645,0-4.844
		c8.173-0.528,16.685-0.202,25.295-1.076c-0.337-1.278-3.312,0.083-3.768-1.076c-0.11-1.685,0.363-3.951-0.538-4.844
		c-1.406,0.746,0.262,4.567-1.076,5.382C191.165,174.824,192.486,171.254,192.67,170.07z"/>
	<path fill-rule="evenodd" clip-rule="evenodd" fill="#F6F1CD" d="M212.044,170.07c1.076,0,2.153,0,3.229,0
		c-0.398,2.112,1.136,6.158-1.614,5.92C211.223,175.915,212.286,172.34,212.044,170.07z"/>
	<path fill-rule="evenodd" clip-rule="evenodd" fill="#F6F1CD" d="M109.79,170.608c0.538,0,1.076,0,1.614,0
		c0.625,1.751,1.011,5.856,0,7.534C109.583,177.11,109.496,172.024,109.79,170.608z"/>
	<path fill-rule="evenodd" clip-rule="evenodd" fill="#F6F1CD" d="M113.019,170.608c5.382,0,10.764,0,16.146,0
		c0.777,1.734,0.509,4.514,0.538,6.996c-4.035-0.546-10.105,0.345-15.607,0C113.434,175.574,113.01,173.308,113.019,170.608z"/>
	<path fill-rule="evenodd" clip-rule="evenodd" fill="#F6F1CD" d="M304.611,173.299c2.673-0.31,0.886,4.88,0,5.92
		C303.784,177.338,304.055,175.225,304.611,173.299z"/>
	<path fill-rule="evenodd" clip-rule="evenodd" fill="#F6F1CD" d="M300.845,174.375c0.538,0,1.076,0,1.614,0
		c-0.666,2.122,0.88,5.254-2.152,5.921C300.269,176.926,300.802,177.473,300.845,174.375z"/>
	<path fill-rule="evenodd" clip-rule="evenodd" fill="#F6F1CD" d="M299.229,174.914c-0.327,1.286,0.676,3.904-0.538,4.305
		c-12.146,5.272-28.956,4.249-44.669,4.306c0-1.794,0-3.588,0-5.382C268.979,176.954,284.248,176.077,299.229,174.914z"/>
	<path fill-rule="evenodd" clip-rule="evenodd" fill="#F6F1CD" d="M25.833,178.143c0.359,0,0.717,0,1.076,0
		c2.701,0.349,1.091,5.009,2.153,6.996C25.025,185.768,26.791,180.594,25.833,178.143z"/>
	<path fill-rule="evenodd" clip-rule="evenodd" fill="#F6F1CD" d="M95.259,179.757c-1.247,2.491,0.472,3.319-0.539,5.382
		c-6.41,0.767-13.397,0.955-20.451,1.077c-1.228-1.284-0.942-4.082-1.615-5.92C80.345,180.323,86.369,180.319,95.259,179.757z"/>
	<path fill-rule="evenodd" clip-rule="evenodd" fill="#F6F1CD" d="M306.227,180.296c0.247,3.476-1.562,4.896-2.691,6.996
		c-4.613,0.947-9.622,1.5-15.069,1.614c0-1.794,0-3.588,0-5.382C294.383,182.444,300.539,181.604,306.227,180.296z"/>
	<path fill-rule="evenodd" clip-rule="evenodd" fill="#F6F1CD" d="M191.055,185.139c0,0.897,0,1.794,0,2.691
		c-2.432,3.096-6.782,1.3-10.225,1.614c-13.656,1.249-29.776,2.724-45.208,2.153c-0.669-1.663-0.838-3.826-1.076-5.92
		C153.023,185.327,172.161,182.636,191.055,185.139z"/>
	<path fill-rule="evenodd" clip-rule="evenodd" fill="#F6F1CD" d="M265.324,185.139c-0.638,2.153-0.005,3.536-0.538,5.382
		c-10.793-0.165-27.009,0.471-38.749-0.538c-0.496,2.11,2.839,0.391,3.229,1.615c-0.146,1.827,0.417,4.363-0.538,5.382
		c-6.231-0.314-10.196-0.206-15.607-0.538c-0.997-1.156-0.362-3.942-0.538-5.921c3.947,0,7.894,0,11.841,0
		c-0.774-2.454-6.464,0.006-8.073-1.614c-0.295-2.146-0.295-1.62,0-3.768C233.079,182.915,247.779,185.693,265.324,185.139z"/>
	<path fill-rule="evenodd" clip-rule="evenodd" fill="#F6F1CD" d="M287.39,184.062c-0.914,1.418-0.054,4.61-1.076,5.92
		c-6.194,0.623-13.271,0.364-19.375,1.077c0-1.974,0-3.947,0-5.921C271.382,184.508,280.157,184.766,287.39,184.062z"/>
	<path fill-rule="evenodd" clip-rule="evenodd" fill="#F6F1CD" d="M193.746,185.139c0.879,0.871-0.48,2.252,0,4.306
		C191.816,189.346,191.463,185.062,193.746,185.139z"/>
	<path fill-rule="evenodd" clip-rule="evenodd" fill="#F6F1CD" d="M195.36,185.139c5.203,0,10.405,0,15.607,0
		c0.309,6.869,0.741,12.28,0,19.913c-5.509-0.636-10.027-0.426-15.607,0C194.353,199.004,195.858,194.014,195.36,185.139z"/>
	<path fill-rule="evenodd" clip-rule="evenodd" fill="#F6F1CD" d="M212.582,185.139c0.897,0,1.794,0,2.691,0
		c-0.167,1.627,0.598,4.187-1.076,4.306C211.864,189.805,212.748,186.946,212.582,185.139z"/>
	<path fill-rule="evenodd" clip-rule="evenodd" fill="#F6F1CD" d="M110.328,186.754c0.265,1.887,0.802,3.503,0.538,5.92
		c-15.586,2.087-30.526,2.536-46.284,1.614c-0.131-2.38-1.102-3.921-1.076-6.458C76.353,187.575,94.443,185.947,110.328,186.754z"/>
	<path fill-rule="evenodd" clip-rule="evenodd" fill="#F6F1CD" d="M130.779,186.216c1.928,5.786,1.038,14.39,4.305,18.836
		c1.281-0.745-1.222-4.039,0-4.844c1.988,0.165,0.943,3.362,2.153,4.306c1.818,0.114,5.47-0.143,8.611,0
		c3.111,0.142,11.951,0.79,7.534,1.076c-7.877,0.844-23.591,0.455-35.52,0.538c-1.583-5.771-2.282-12.428-3.229-18.836
		C119.502,186.421,125.56,186.737,130.779,186.216z"/>
	<path fill-rule="evenodd" clip-rule="evenodd" fill="#F6F1CD" d="M132.393,186.216c0.538,0,1.077,0,1.615,0
		c-0.439,2.241,0.732,4.491,0,5.382C132.479,190.794,132.511,188.43,132.393,186.216z"/>
	<path fill-rule="evenodd" clip-rule="evenodd" fill="#F6F1CD" d="M111.404,186.754c0.539,0,1.077,0,1.615,0
		c0.687,2.647,1.293,4.708,0.538,6.458C110.857,193.041,112.23,188.798,111.404,186.754z"/>
	<path fill-rule="evenodd" clip-rule="evenodd" fill="#F6F1CD" d="M40.364,187.292c9.618-0.021,13.483,0.863,21.527,0
		c0.384,1.991,1.237,5.631,0.538,6.996c-7.907-0.421-15.685,0.393-20.989-0.538C41.466,191.213,40.495,189.672,40.364,187.292z"/>
	<path fill-rule="evenodd" clip-rule="evenodd" fill="#F6F1CD" d="M302.997,188.368c1.388,0.739,0.119,3.298,0,4.306
		C301.405,191.73,303.308,189.807,302.997,188.368z"/>
	<path fill-rule="evenodd" clip-rule="evenodd" fill="#F6F1CD" d="M299.229,188.906c0.538,0,1.077,0,1.615,0
		c0.261,2.952-0.377,5.005-1.615,6.458C297.678,193.776,299.985,191.482,299.229,188.906z"/>
	<path fill-rule="evenodd" clip-rule="evenodd" fill="#F6F1CD" d="M193.746,196.441c-6.124-0.335-13.601,0.684-18.837-0.539
		c0-1.435,0-2.87,0-4.305c5.055-1.049,10.988-0.543,17.761-1.615C194.685,190.479,193.371,194.305,193.746,196.441z"/>
	<path fill-rule="evenodd" clip-rule="evenodd" fill="#F6F1CD" d="M297.615,189.982c0.397,2.551-0.605,3.7-0.538,5.92
		c-11.613,4.375-31.219,2.652-43.055,1.077c0-1.615,0-3.229,0-4.844C269.646,192.512,284.45,192.065,297.615,189.982z"/>
	<path fill-rule="evenodd" clip-rule="evenodd" fill="#F6F1CD" d="M173.295,191.598c0.955,1.019,0.393,3.555,0.538,5.382
		c-5.906,0.484-14.515,1.173-22.604,1.076c0-1.794,0-3.588,0-5.382C158.577,192.605,165.898,192.733,173.295,191.598z"/>
	<path fill-rule="evenodd" clip-rule="evenodd" fill="#F6F1CD" d="M230.343,191.598c10.52,0.099,12.575,0.453,22.065,0.538
		c-0.11,1.684,0.362,3.95-0.538,4.844c-10.026,0.302-11.782,0.597-21.527,0C230.343,195.186,230.343,193.392,230.343,191.598z"/>
	<path fill-rule="evenodd" clip-rule="evenodd" fill="#F6F1CD" d="M150.153,192.674c0,1.794,0,3.588,0,5.382c-2.87,0-5.74,0-8.611,0
		c16.76,3.937,31.742-2.256,49.513,0c0.746,3.896-5.058,4.275-8.61,4.844c-8.661,1.385-23.122,1.015-33.367,0.538
		c-3.831-0.179-10.542,1.959-11.84-2.691c0.042-1.752,2.439-1.148,3.767-1.614c-1.438-1.402-4.745-0.107-6.458,0
		C129.119,189.936,143.488,193.152,150.153,192.674z"/>
	<path fill-rule="evenodd" clip-rule="evenodd" fill="#F6F1CD" d="M113.557,193.75c0.657,1.676,1.253,3.411,1.077,5.92
		c-4.224,1.875-11.403,0.797-17.222,1.076c0.422-2.216-0.826-2.762-0.538-4.844C102.719,193.741,108.276,194.416,113.557,193.75z"/>
	<path fill-rule="evenodd" clip-rule="evenodd" fill="#F6F1CD" d="M31.753,194.826c13.695,0.737,26.846,0.376,41.979,1.076
		c0.609,1.724,1.094,3.57,1.076,5.921c-12.921-1.484-27.106,1.963-40.364,0C32.295,200.742,32.591,197.218,31.753,194.826z"/>
	<path fill-rule="evenodd" clip-rule="evenodd" fill="#F6F1CD" d="M27.986,195.902c-0.091-1.167,1.909-0.243,2.691-0.538
		c0.486,2.046,1.77,5.489,0.538,7.535C29.682,201.023,29.563,197.734,27.986,195.902z"/>
	<path fill-rule="evenodd" clip-rule="evenodd" fill="#F6F1CD" d="M95.259,195.364c-0.179,2.152,0.959,2.987,0.538,5.382
		c-6.985-0.283-12.51,1.419-19.375,1.077c-0.341-1.991-1.46-3.204-1.077-5.921C82.561,196.302,88.356,195.279,95.259,195.364z"/>
	<path fill-rule="evenodd" clip-rule="evenodd" fill="#F6F1CD" d="M298.691,196.441c1.558,1.943-0.657,4.703-1.076,6.458
		c-2.873,1.134-7.442,1.624-10.226,0c0-1.076,0-2.153,0-3.229C290.023,198.851,296.411,199.176,298.691,196.441z"/>
	<path fill-rule="evenodd" clip-rule="evenodd" fill="#F6F1CD" d="M192.132,197.518c0.538,0,1.076,0,1.614,0
		c-0.479,2.725,0.177,4.008,0,7.534c-10.351-0.186-15.023,0.396-23.68,0.538c4.446-1.682,15.657-1.512,22.065-4.306
		C192.132,200.029,192.132,198.773,192.132,197.518z"/>
	<path fill-rule="evenodd" clip-rule="evenodd" fill="#F6F1CD" d="M212.582,198.056c0.718,0,1.436,0,2.153,0
		c-0.338,1.636,0.688,4.636-0.538,5.382C211.565,203.737,212.912,200.059,212.582,198.056z"/>
	<path fill-rule="evenodd" clip-rule="evenodd" fill="#F6F1CD" d="M263.71,200.208c-0.58,3.36-5.528,3.04-8.073,3.229
		c-13.829,1.027-25.98-0.225-39.825-0.538c0-1.615,0-3.229,0-4.844C232.685,199.007,249.573,197.187,263.71,200.208z"/>
	<path fill-rule="evenodd" clip-rule="evenodd" fill="#F6F1CD" d="M264.786,199.67c8.047,0.323,15.957,0.994,21.527,0
		c-0.11,1.685,0.363,3.951-0.538,4.844c-6.929-0.965-15.367-0.42-20.989-2.69C264.786,201.105,264.786,200.388,264.786,199.67z"/>
	<path fill-rule="evenodd" clip-rule="evenodd" fill="#F6F1CD" d="M112.48,201.284c0.453,1.342,0.705,2.884,0.538,4.844
		c-15.327,0.896-31.78,0.583-46.284,1.077c0.506-2.31-1.667-3.557-0.538-4.844C84.306,203.733,97.156,201.714,112.48,201.284z"/>
	<path fill-rule="evenodd" clip-rule="evenodd" fill="#F6F1CD" d="M113.557,201.284c0.538,0,1.077,0,1.615,0
		c0.045,1.929,0.837,3.11,1.076,4.844C113.464,206.4,114.192,203.16,113.557,201.284z"/>
	<path fill-rule="evenodd" clip-rule="evenodd" fill="#F6F1CD" d="M32.291,202.361c1.989,1.419,5.76,1.057,9.149,1.076
		c0.582,1.571,1.205,3.101,1.076,5.382c-2.091,0.779-4.506,1.234-7.535,1.076C33.441,208.028,31.965,206.096,32.291,202.361z"/>
	<path fill-rule="evenodd" clip-rule="evenodd" fill="#F6F1CD" d="M64.582,202.899c0.001,2.151,1.075,3.229,1.077,5.382
		c-8.241,1.168-13.582,1.603-20.989,2.152c-0.623-2.247-1.344-4.396-1.615-6.996C50.326,203.354,58.087,203.76,64.582,202.899z"/>
	<path fill-rule="evenodd" clip-rule="evenodd" fill="#F6F1CD" d="M262.096,203.976c0.015-0.523,0.658-0.418,1.076-0.538
		c5.396,0.523,10.237,1.603,16.146,1.614c1.15,0.881-4.733,0.655-6.997,0.538c-3.742-0.192-8.042-1.298-10.764-1.076
		C260.729,204.229,261.522,203.952,262.096,203.976z"/>
	<path fill-rule="evenodd" clip-rule="evenodd" fill="#F6F1CD" d="M213.12,203.976c2.462,0.229,4.563,0.818,7.535,0.538
		C223.367,204.886,213.003,206.198,213.12,203.976z"/>
	<path fill-rule="evenodd" clip-rule="evenodd" fill="#F6F1CD" d="M237.877,205.052c5.608-1.073,18.021-0.732,24.757,0.538
		C255.873,206.069,245.248,205.755,237.877,205.052z"/>
	<path fill-rule="evenodd" clip-rule="evenodd" fill="#F6F1CD" d="M285.775,207.205c-61.287,1.824-110.759-0.972-175.448,1.614
		c-13.895,0.556-33.204,0.485-44.669,1.076c7.159-2.739,15.297-2.152,22.604-2.152C152.086,207.743,220.333,204.766,285.775,207.205
		z"/>
	<path fill-rule="evenodd" clip-rule="evenodd" fill="#F6F1CD" d="M30.677,1.619c-0.976,1.356-3.135,1.53-3.768,3.229
		C25.582,3.309,28.86,1.799,30.677,1.619z"/>
	<path fill-rule="evenodd" clip-rule="evenodd" fill="#F6F1CD" d="M194.284,65.663c20.324-14.671,45.48-30.136,67.812-45.746
		C272.582,12.586,285.675-0.174,299.768,7c0.887,4.294-2.12,4.697-2.69,7.535c-29.636,13.957-53.202,33.984-79.651,51.127
		c-0.099,0.458,0.21,0.508,0.538,0.538C213.389,65.371,203.398,64.777,194.284,65.663z"/>
	<path fill-rule="evenodd" clip-rule="evenodd" fill="#F6F1CD" d="M299.768,4.848c0.842-1.646,4.771,3.125,1.615,3.768
		C301.638,6.566,301.154,5.256,299.768,4.848z"/>
	<path fill-rule="evenodd" clip-rule="evenodd" fill="#F6F1CD" d="M301.921,68.354c-1.145-0.672,5.383-0.604,5.382,1.076
		C305.529,69.05,303.862,68.565,301.921,68.354z"/>
	<path fill-rule="evenodd" clip-rule="evenodd" fill="#F6F1CD" d="M24.756,68.892c-0.584,0.865-6.195,1.328-8.611,2.153
		C17.777,69.088,21.726,69.449,24.756,68.892z"/>
	<path fill-rule="evenodd" clip-rule="evenodd" fill="#F6F1CD" d="M318.066,82.346c-2.153,0-4.306,0-6.458,0
		c4.742,0.79,9.516-7.166,2.69-9.688C316.193,71.748,322.062,78.311,318.066,82.346z"/>
	<path fill-rule="evenodd" clip-rule="evenodd" fill="#F6F1CD" d="M318.604,73.197c0.737-1.496,7.992,8.5,1.076,8.611
		C322.684,79.788,320.927,74.551,318.604,73.197z"/>
	<path fill-rule="evenodd" clip-rule="evenodd" fill="#F6F1CD" d="M4.844,73.735c1.067,0.929-2.338,1.936-1.614,4.305
		c0.101,1.514,0.936,2.293,2.69,2.153c1.355-0.542-1.463-1.344-1.614-2.153c0.515-1.099,1.1-2.129,1.614-3.229
		c-0.889,4.075,3.459,6.236,8.611,5.92C10.208,83.506-3.47,79.195,4.844,73.735z"/>
	<path fill-rule="evenodd" clip-rule="evenodd" fill="#F6F1CD" d="M102.255,88.804c1.078-1.254,1.61-3.054,4.306-2.691
		c0.83-1.625-2.785-1.416-2.691-0.538c5.256-6.162,12.603,5.821,5.92,9.149C105.992,96.615,101.977,93.88,102.255,88.804z
		 M108.175,93.11c0.744-0.871,1.904-1.325,1.615-3.229C106.808,83.881,101.078,92.843,108.175,93.11z"/>
	<path fill-rule="evenodd" clip-rule="evenodd" fill="#F6F1CD" d="M199.128,85.575c-4.506,5.702,0.95,17.885,9.149,13.993
		c-2.747,3.894-10.331,7.606-15.607,10.764c-4.325-3.209-7.577-7.492-9.149-13.455C188.455,92.842,194.142,89.559,199.128,85.575z"
		/>
	<path fill-rule="evenodd" clip-rule="evenodd" d="M109.79,89.881c0.29,1.904-0.871,2.358-1.615,3.229
		C101.078,92.843,106.808,83.881,109.79,89.881z M108.175,88.804c-1.917-0.123-2.814,0.774-2.691,2.691
		C107.148,93.203,110.07,90.657,108.175,88.804z"/>
	<path fill-rule="evenodd" clip-rule="evenodd" fill="#F6F1CD" d="M270.168,109.255c-17.984-0.28-34.283,1.069-53.28,0
		c0-2.153,0-4.306,0-6.458c16.159,1.243,37.478,0.195,52.742,0.539C270.229,103.693,270.174,106.797,270.168,109.255z"/>
	<path fill-rule="evenodd" clip-rule="evenodd" d="M262.634,65.125c25.16,1.935,51.06-4.223,63.505,12.378
		c-1.042,6.672-1.634,13.794-2.152,20.989c-3.575,1.268-1.785,7.903-5.382,9.149c5.426,6.387-2.069,12.165-3.229,17.76
		c-0.637,3.071,1.766,7.878,0.538,11.84c-0.841,2.716-3.491,3.938-3.767,6.458c-0.518,4.726,3.682,10.718-2.153,13.992
		c0.425,4.437,0.408,5.442,1.615,9.688c-2.679,3.304-5.71,9.05-2.691,12.378c-1.604,8.905-4.399,15.841-8.072,23.681
		c-6.304,4.822-12.485,6.976-23.681,6.996c-35.843,0.065-71.021-2.788-108.713-1.076c-15.926,0.724-32.281,0.804-48.436,0.538
		c-29.36-0.482-58.419,3.609-86.109,1.076c-5.694-6.863-10.775-14.34-12.378-25.294c-0.51-1.945,2.12-0.751,3.229-1.077
		c-0.642-2.049-0.124-5.257-1.614-6.458c-1.943,0.345,0.146,2.581-0.538,4.844c-5.606-6.521-2.014-18.943-7.535-25.295
		c-0.448-7.267-1.408-14.02-3.768-19.374c3.109-6.373-2.336-11.004-1.614-18.298c-6.603-4.266-2.161-11.179-3.768-18.298
		c-0.532-2.358-3.296-3.37-4.305-5.92C-0.671,90.021,1.085,83.406,0,76.964c10.929-12.673,35.27-8.944,56.509-10.764
		C51.691,60.945,44.07,53.658,35.52,46.826c-7.72-6.17-17.384-12.743-20.989-19.913C8.366,14.65,20.924,6.124,27.986,0.004
		c18.751-0.273,24.75,12.205,37.134,18.298c20.532,16.603,42.191,32.079,63.506,47.898c0.667,0.017,6.37-0.78,4.844,0.538
		c14.257-2.193,41.707-0.636,57.047-1.076c19.67-14.308,46.994-30.378,68.888-45.746c11.758-8.253,28.338-25.182,45.745-15.607
		c3.884,10.387,10.249,19.451,2.153,29.062c-4.458,5.292-16.086,11.157-22.604,15.607C276.179,54.796,268.231,60.258,262.634,65.125
		z M26.909,4.848c0.633-1.699,2.792-1.873,3.768-3.229C28.86,1.799,25.582,3.309,26.909,4.848z M51.127,11.306
		c-6.505-4.798-13.93-11.77-23.142-5.92c-0.587,9.829,4.986,9.804,11.302,13.993c3.466,2.298,6.787,4.711,9.149,6.458
		c13.297,9.833,23.587,17.036,36.597,26.909c5.044,3.828,13.786,12.511,18.298,13.455c2.432,0.509,8.295-1.953,10.226,0.538
		c-0.946,0.31-3.162-0.65-3.229,0.538c5.205-0.356,11.836,0.714,16.146-0.538C103.3,48.942,75.217,29.072,51.127,11.306z
		 M217.964,66.201c-0.328-0.03-0.637-0.081-0.538-0.538c26.449-17.144,50.016-37.17,79.651-51.127c0.57-2.838,3.577-3.24,2.69-7.535
		c-14.093-7.174-27.186,5.586-37.672,12.917c-22.331,15.61-47.487,31.074-67.812,45.746
		C203.398,64.777,213.389,65.371,217.964,66.201z M301.383,8.615c3.156-0.643-0.773-5.414-1.615-3.768
		C301.154,5.256,301.638,6.566,301.383,8.615z M45.208,30.143c-8.308-7.018-18.673-13.653-20.989-24.218
		c-4.759,5.019-11.637,10.94-8.073,19.375C19.741,33.807,30.9,41.458,38.75,47.902c24.835,20.392,52.126,45.082,75.345,61.891
		c5.308-2.944,10.103-6.402,11.84-12.917c-4.221-2.775-7.457-6.536-11.84-9.149c3.529,11.174-13.536,13.717-15.069,4.306
		c-0.883-5.425,2.888-9.253,9.149-9.688C87.081,66.785,65.987,47.693,45.208,30.143z M287.928,25.299
		c-27.012,19.145-60.304,39.843-86.109,58.662c9.113-2.544,15.496,6.409,10.226,13.454c20.706-12.875,46.806-33.194,67.812-47.898
		c7.93-5.551,16.636-9.978,23.142-15.607c2.499-2.162,5.536-6.738,5.92-9.687c0.662-5.083-2.259-5.867-3.229-9.149
		c-0.658-2.224,1.028-5.118-1.615-5.382C300.519,15.932,293.838,21.11,287.928,25.299z M90.415,66.201
		c3.43-0.483,5.334-0.036,8.073-0.538c-9.248-7.708-20.128-16.585-31.215-24.218c-11.289-7.772-21.777-16.688-32.829-22.604
		C52.353,35.375,71.868,50.304,90.415,66.201z M224.423,61.895c-0.749,0.575-2.762,2.107-2.153,3.229
		c7.402-0.56,12.865-6.159,18.299-9.688c17.203-11.172,32.019-24.192,49.513-34.982c0.118-0.676,0.838-1.1-0.538-1.076
		C269.266,33.977,243.914,46.931,224.423,61.895z M276.626,66.201C268.784,65.571,269.92,67.85,276.626,66.201L276.626,66.201z
		 M96.873,66.739c-1.636,0.337-4.636-0.689-5.382,0.538C93.127,66.939,96.127,67.966,96.873,66.739z M109.79,66.739
		c-1.989,0.343-5.361-0.697-6.458,0.538C105.32,66.934,108.692,67.974,109.79,66.739z M94.182,68.354
		c3.423,2.619,8.097,10.172,13.455,11.84c4.229,1.316,10.266-0.211,15.069,0c26.017,1.144,59.066-0.742,82.88-0.538
		c3.669-3.109,9.723-6.387,13.455-9.149c1.212-0.897,3.829-2.275,2.69-3.229C182.625,68.107,134.542,67.988,94.182,68.354z
		 M258.328,67.815c-6.357,4.406-13.446,8.081-18.837,13.455c16.883-0.02,41.261-0.358,60.276-1.077
		c5.605-0.211,12.925,2.26,16.146-2.691C305.356,64.421,277.883,69.341,258.328,67.815z M307.303,69.43
		c0.001-1.68-6.526-1.749-5.382-1.076C303.862,68.565,305.529,69.05,307.303,69.43z M61.353,68.892
		c-19.076,0.109-38.659-0.655-53.818,7.535c2.485,4.808,10.074,3.002,15.069,3.229c15.767,0.716,35.113,0.583,51.127,0.538
		C70.691,75.34,64.803,73.335,61.353,68.892z M16.146,71.044c2.416-0.825,8.026-1.288,8.611-2.153
		C21.726,69.449,17.777,69.088,16.146,71.044z M314.299,72.659c6.825,2.521,2.052,10.478-2.69,9.688c2.152,0,4.305,0,6.458,0
		C322.062,78.311,316.193,71.748,314.299,72.659z M319.681,81.808c6.916-0.111-0.339-10.107-1.076-8.611
		C320.927,74.551,322.684,79.788,319.681,81.808z M14.531,80.731c-5.152,0.316-9.5-1.845-8.611-5.92
		c-0.515,1.1-1.099,2.13-1.614,3.229c0.151,0.809,2.97,1.61,1.614,2.153c-1.754,0.14-2.59-0.639-2.69-2.153
		c-0.724-2.369,2.681-3.376,1.614-4.305C-3.47,79.195,10.208,83.506,14.531,80.731z M56.509,81.27
		c1.827,0.146,4.363-0.417,5.382,0.538C62.451,79.72,55.057,80.769,56.509,81.27z M190.517,81.27
		c-25.084,1.286-53.005-1.717-78.036,0c0.441-0.03-4.862,0.082-1.615,0.538c0.854,0.12,4.676-0.013,5.92,0
		c27.617,0.292,62.137,0.651,86.648-1.077C199.181,80.964,193.922,80.19,190.517,81.27z M2.691,89.881
		c-0.448,11.899,13.251,9.344,23.68,9.687c26.216,0.862,47.432,1.092,72.655,1.077c-3.046-3.548-6.822-6.494-10.764-9.688
		c-2.883-2.335-9.839-9.268-12.917-9.149c-23.033,0.887-49.678,1.415-73.731-0.538C5.166,84.517,2.848,85.724,2.691,89.881z
		 M52.204,81.27c-2.522,0.348-6.445-0.704-8.073,0.538C46.653,81.459,50.576,82.512,52.204,81.27z M300.307,81.808
		c-3.588,0-7.176,0-10.764,0c-3.415,0.353-8.244-0.709-10.764,0.538C285.776,81.989,294.205,83.062,300.307,81.808z M112.48,83.422
		c2.024,6.061,16.757,7.944,13.993,17.222c19.829,0.742,40.168,0.913,55.971,0.538c1.003-0.693-1.236-2.675-0.538-4.844
		c5.748-5.015,12.842-8.686,18.836-13.455C171.263,82.613,141.132,83.175,112.48,83.422z M234.647,83.961
		c-8.358,5.634-16.754,11.231-24.756,17.222c20.928-0.239,36.896,1.038,59.738,0c20.695-0.94,43.43,1.331,52.204-4.306
		c0.183-1.977-3.09-0.498-2.153-3.229c0.799,0.641,2.509-1.07,2.691-2.691c0.651-4.09-2.578-0.98-2.691-4.305
		c2.118-1.022,2.653-0.474,3.229-3.229C293.575,84.456,268.542,83.629,234.647,83.961z M109.79,94.725
		c6.683-3.329-0.664-15.312-5.92-9.149c-0.094-0.877,3.521-1.086,2.691,0.538c-2.695-0.363-3.228,1.437-4.306,2.691
		C101.977,93.88,105.992,96.615,109.79,94.725z M201.28,86.113c-5.82,4.297,0.129,16.403,6.459,11.302
		c-7.834,3.053-10.428-9.095-5.383-9.149c-2.841,4.016,1.178,9.505,5.921,7.535c0.084,0.633-0.093,1.528,0.538,1.614
		C217.958,92.764,208.941,80.458,201.28,86.113z M183.521,96.877c1.572,5.963,4.824,10.245,9.149,13.455
		c5.276-3.157,12.86-6.87,15.607-10.764c-8.199,3.892-13.655-8.291-9.149-13.993C194.142,89.559,188.455,92.842,183.521,96.877z
		 M7.535,104.412c1.521-0.445,1.394,0.759,2.691,0.538c-0.335-2.356-0.643-4.739-3.229-4.843
		C6.761,101.957,7.209,103.123,7.535,104.412z M13.993,105.488c12.515,1.982,34.487,0.72,46.284,0
		c1.342-0.082,5.063,1.35,5.382-1.615c0.094-2.404-3.513-2.026-4.844-2.153c-15.609-1.483-35.835,1.029-48.437-1.614
		C11.987,102.83,13.855,103.293,13.993,105.488z M292.771,102.797c-0.616,1.636-0.353,2.511-0.538,5.382
		c6.465-1.363,27.139,4.398,26.909-6.996C310.023,101.909,303.524,103.069,292.771,102.797z M72.655,102.259
		c-2.279,0.064-6.606-1.347-5.92,2.153c9.135,1.616,14.176-0.791,23.142-0.538C87.054,101.248,78.206,102.104,72.655,102.259z
		 M90.953,103.874c3.767,0,7.535,0,11.302,0c0.788,2.621-0.164,6.98,2.153,8.073c0.265-2.143,0.421-7.64-1.615-9.149
		C100.124,103.342,92.064,101.217,90.953,103.874z M152.306,103.335c-9.027-0.495-19.334,0.59-26.909,0
		c0.297,2.573,0.332,5.409,1.076,7.535c22.17,0.077,41.615-0.007,61.891-1.077C186.338,99.261,167.699,104.179,152.306,103.335z
		 M196.437,110.332c5.621,0.419,9.633-0.772,15.069-0.538c-0.218-2.293,0.521-5.544-0.538-6.997
		C204.69,102.648,201.153,107.415,196.437,110.332z M213.12,109.793c4.109,1.254,2.756-5.272,2.153-6.997c-0.718,0-1.436,0-2.153,0
		C212.078,104.834,213.27,106.311,213.12,109.793z M269.63,103.335c-15.265-0.343-36.583,0.704-52.742-0.539
		c0,2.153,0,4.306,0,6.458c18.997,1.069,35.296-0.28,53.28,0C270.174,106.797,270.229,103.693,269.63,103.335z M271.244,103.335
		c0.054,2.206,0.106,4.411-0.538,5.92c5.75,0.697,15.732-0.671,20.451-1.077c0-1.614,0-3.229,0-4.843
		C286.864,102.218,278.362,103.945,271.244,103.335z M124.858,111.408c0.027-1.149,0.657-6.952-1.076-8.073
		C123.731,106.437,123.705,109.512,124.858,111.408z M50.589,107.103c0.077,2.614,0.849,4.533,1.615,6.458
		c16.776,0.022,34.95-0.968,49.513-1.614c-0.218-2.294,0.521-5.544-0.538-6.997C83.241,104.593,67.808,106.741,50.589,107.103z
		 M8.611,113.022c6.612,0.708,14.188,0.958,19.913,1.077c0.82-1.488-0.856-4.303-1.077-6.458
		c-7.239,0.063-13.652-0.699-19.913-1.614C7.347,108.904,7.771,111.171,8.611,113.022z M106.561,111.946
		c5.074-0.667,10.904-0.577,16.684-0.538c-0.151-1.822-0.856-3.091-0.538-5.382c-5.078,5.456-12.144,5.456-17.222,0
		C106.191,107.651,105.853,110.321,106.561,111.946z M28.524,107.641c0.492,2.02,1.219,3.805,1.614,5.92
		c8.756,0,12.231-0.441,19.913,0c0.192-2.704-0.332-4.691-1.077-6.458C41.432,107.062,37.025,107.997,28.524,107.641z
		 M313.223,109.255c0.167,2.14-1.243,2.704-1.076,4.844c3.059-0.171,4.05-2.408,4.306-5.382
		C315.184,108.705,314.867,109.644,313.223,109.255z M307.841,115.175c3.094,0.942,3.877-5.566,2.152-5.92
		C308.578,110.531,308.293,112.937,307.841,115.175z M256.714,110.87c-0.788,2.389,0.004,3.158,0,5.92
		c15.417,1.567,30.946,0.128,49.513-1.077c0.58-1.931,1.354-3.669,1.614-5.92C290.006,109.36,274.817,111.572,256.714,110.87z
		 M170.066,111.946c0.264,3.27,0.152,3.667,0.538,6.458c19.741,0.926,44.976,0.489,61.353,0c0.495-1.048,0.948-5.209,0-7.534
		C212.304,110.802,188.631,111.221,170.066,111.946z M233.571,110.87c0.087,3.121-0.199,5.657-0.538,6.996
		c6.013,0.507,14.358-0.979,22.065-0.538c0.517-2.922,0.322-3.236,0.538-6.458C249.251,110.092,243.962,110.988,233.571,110.87z
		 M146.386,111.946c-0.158,3.029,0.297,5.444,1.076,7.535c8.262-0.412,12.331-0.06,22.065-1.077
		c0.141-2.831-0.367-5.014-1.076-6.996C161.344,112.155,154.942,111.876,146.386,111.946z M90.953,113.561
		c-0.009,2.7,0.415,4.967,1.076,6.997c18.832-0.38,36.104,0.34,53.818-1.615c0.423-2.754-0.755-3.909-0.538-6.458
		C129.844,111.6,110.676,113.246,90.953,113.561z M8.611,116.252c0.029-1.5-1.079-4.613-2.153-3.229
		C7.665,113.61,7.404,115.665,8.611,116.252z M67.811,114.637c-1.199,1.032,1.216,4.961-0.538,6.458
		c-1.111-2.474-0.504-4.26-1.076-6.458c-17.683,0.156-33.53-0.613-48.975,1.076c0.943,1.031,1.141,2.806,1.614,4.306
		c26.041,2.178,43.291,2.544,71.041,0.538c0.477-1.876,0.469-3.87-0.539-6.997C82.045,113.935,73.562,114.304,67.811,114.637z
		 M291.157,118.404c0.109,1.684-0.363,3.951,0.538,4.844c7.96-0.831,17.33-0.251,24.218-2.153c0.998-2.38,3.202-6.529,1.077-7.535
		C311.013,117.81,299.975,116.997,291.157,118.404z M11.302,119.481c1.646-0.391,1.583,0.928,3.229,0.538
		c0.357-2.51-0.848-3.458-1.077-5.382c-1.255,0-2.511,0-3.767,0C10.091,116.386,10.662,117.968,11.302,119.481z M17.76,120.019
		c-0.63-1.702-0.983-3.681-2.153-4.844C16.092,117.022,15.923,119.524,17.76,120.019z M216.888,120.019
		c-0.469,1.556-0.469,4.363,0,5.92c8.142,1.923,23.085-1.018,27.985,1.077c-3.542,0.586-5.185,0.264-11.84,0.538
		c0.218,2.293-0.521,5.544,0.538,6.996c6.795-0.56,13.451-1.259,20.989-1.076c0.358-2.009,0.603-4.975,0-6.458
		c-4.45-0.62-7.468,1.594-8.61-0.539c6.979-1.632,17.279,0.058,23.68-2.153c-0.395-3.343-0.042-2.804-0.538-5.382
		C254.109,117.068,232.439,120.203,216.888,120.019z M270.706,118.942c-0.666,0.936,0.411,3.574,0,5.92
		c6.9-0.028,13.784-1.007,19.375-1.615c-0.094-2.854-0.349-2.746,0-5.382C284.026,117.967,278.134,118.932,270.706,118.942z
		 M127.549,121.634c-0.264,2.417,0.273,4.032,0.539,5.92c21.101,1.243,44.204-0.286,62.967-0.538c0.511-2.742,0.511-4.255,0-6.997
		C168.653,119.858,148.559,119.818,127.549,121.634z M194.822,120.019c-0.981,2.108-0.522,5.369,0.538,6.997
		c4.253-1.13,10.493-0.271,15.607-0.539c1.031-1.3,0.34-4.325,0.538-6.458C205.944,120.019,200.384,120.019,194.822,120.019z
		 M214.197,126.477c2.015-0.497,0.701-4.321,1.076-6.458c-0.897,0-1.794,0-2.691,0C213.042,122.25,211.345,126.638,214.197,126.477z
		 M193.208,127.016c-0.563-1.948,1.221-6.244-1.076-6.458C192.811,123.561,191.188,125.52,193.208,127.016z M11.84,127.554
		c5.447,1.37,12.515,1.119,19.375,1.076c-0.114-3.062-0.351-3.112-1.077-5.92c-6.282-0.18-13.367-2.415-19.375-1.076
		C11.637,123.093,11.457,125.604,11.84,127.554z M107.099,121.634c-0.41,2.921,0.664,4.359,0.538,6.996
		c6.146,0.406,10.827-0.654,16.684-0.538c0.009-2.7-0.415-4.967-1.076-6.997C117.754,121.167,113.008,121.981,107.099,121.634z
		 M127.011,128.092c-0.429-2.441,0.312-6.053-1.614-6.997C125.753,123.609,124.355,127.877,127.011,128.092z M52.742,123.786
		c0.851,1.481,0.93,3.734,1.614,5.382c14.401,1.021,33.514-1.253,48.437,0c1.184-1.851,0.349-5.508,0-7.534
		C84.264,121.749,67.73,123.052,52.742,123.786z M106.022,128.63c-0.218-2.293,0.521-5.544-0.539-6.996c-0.538,0-1.076,0-1.614,0
		C104.808,123.745,103.576,128.026,106.022,128.63z M31.753,122.71c0.031,2.301,0.722,3.942,1.076,5.92
		c5.75,0.935,12.213,0.08,19.375,0.538c1.133-1.659-0.823-3.951-0.539-6.458C44.681,121.933,40.125,122.835,31.753,122.71z
		 M308.379,130.783c2.142,0.348,2.164-1.424,4.306-1.077c0.482-2.029,0.464-4.559,1.076-6.458c-1.256,0-2.512,0-3.768,0
		C309.671,125.975,308.207,127.561,308.379,130.783z M256.175,127.016c0,1.973,0,3.946,0,5.92
		c12.851,1.41,31.298,0.161,46.284-1.077c0.068-2.786,2.109-5.917,1.076-8.073C286.318,124.854,269.49,126.752,256.175,127.016z
		 M305.149,131.859c2.345-2.251,1.828-4.308,2.153-8.073c-0.538,0-1.076,0-1.614,0C305.655,126.068,302.421,130.343,305.149,131.859
		z M171.143,129.168c0,1.974,0,3.947,0,5.92c21.979,2.639,39.757-0.644,60.814-0.538c0-2.332,0-4.664,0-6.996
		C209.629,127.254,192.878,128.108,171.143,129.168z M148,136.165c7.355,0,14.711,0,22.066,0c-0.234-2.457,0.544-5.926-0.539-7.535
		c-6.461,0.711-15.65,0.969-22.065,0C147.258,129.648,147.188,134.445,148,136.165z M13.993,135.088
		c1.231,0.343,3.246,1.068,4.305,0c-0.353-1.88-0.358-2.944-1.076-5.382c-1.699,0.264-1.901-0.97-3.768-0.538
		C12.526,130.489,14.237,132.769,13.993,135.088z M92.029,130.245c0.565,2.197-0.266,3.797,0,6.996
		c14.586,1.005,35.211,0.016,54.356-1.076c-0.218-2.294,0.521-5.544-0.538-6.997C125.893,128.804,110.266,130.056,92.029,130.245z
		 M22.604,136.703c-1.259-2.149-0.417-6.4-3.229-6.997C19.266,131.258,19.205,136.916,22.604,136.703z M24.756,136.703
		c12.69,2.923,30.631,1.329,43.055,1.615c-0.057-3.173-0.599-3.622-0.538-7.535c-13.724-0.699-31.973-0.323-45.208-1.077
		C23.192,131.809,22.819,135.411,24.756,136.703z M68.35,130.783c0.571,2.245,0.088,4.712,1.076,7.535
		c7.515-1.427,16.284,0.699,22.065-1.615c-1.474-1.217,0.353-5.735-1.076-6.997C83.243,130.311,76.924,129.74,68.35,130.783z
		 M313.223,130.783c-5.678,2.934-13.714,3.507-22.604,3.229c-0.534,1.998-1.266,5.993-0.538,7.535
		c7.443,0.537,18.08-0.152,23.142-3.768C312.85,135.573,315.892,131.779,313.223,130.783z M269.63,135.088
		c0.532,3.32,0.234,4.608,0,8.073c6.884,0.426,11.946-0.97,18.298-1.077c0.876-3.154,0.948-5.934,0.538-8.073
		C283.936,134.615,276.159,134.883,269.63,135.088z M216.888,136.165c0.234,2.457-0.544,5.926,0.538,7.535
		c17.244-0.222,35.987-0.181,51.128-0.538c0-2.691,0-5.382,0-8.073C250.636,133.494,236.503,135.937,216.888,136.165z
		 M14.531,142.623c4.931,2.603,12.104,2.965,19.913,2.691c-0.564-1.768-0.257-4.407-1.076-5.92
		c-6.843-0.692-14.016-1.053-19.913-2.691C13.278,139.211,13.875,140.947,14.531,142.623z M194.822,137.241
		c0.331,3.019-0.56,5.848,0,7.535c5.879,0.317,10.18-0.942,16.146-0.538c0.881-2.915,0.14-4.138,0.538-7.535
		C205.36,136.297,200.679,137.356,194.822,137.241z M212.582,143.699c1.077,0,2.153,0,3.229,0c0-2.333,0-4.665,0-6.997
		c-1.076,0-2.152,0-3.229,0C212.582,139.035,212.582,141.367,212.582,143.699z M129.164,138.317
		c-0.217,2.549,0.96,3.704,0.538,6.458c19.046,0.978,44.684-1.861,61.353,0c0.777-1.734,0.509-4.514,0.538-6.997
		C171.826,136.854,148.213,136.731,129.164,138.317z M192.132,144.775c2.012-0.339,1.173-6.337,0.538-7.535
		C192.091,138.402,193.346,142.847,192.132,144.775z M128.626,144.775c-0.2-2.67,0.811-6.552-1.615-6.997
		C127.191,140.47,126.449,144.082,128.626,144.775z M103.87,138.855c-16.034-0.357-33.164,0.515-48.437,1.076
		c-0.018,2.351,0.467,4.197,1.076,5.92c17.945,2.229,31.58-0.323,48.975,0.538C105.076,142.571,106.293,140.101,103.87,138.855z
		 M110.328,145.852c4.797-0.943,11.51,0.028,16.146-1.076c-0.671-1.841-0.182-4.841-1.076-6.458c-5.437-0.176-11.667,1.53-16.684,0
		C108.778,141.301,109.403,143.727,110.328,145.852z M107.637,145.852c1.662-1.872-0.59-4.41,0-6.996c-0.538,0-1.076,0-1.614,0
		C106.668,141.08,105.65,144.968,107.637,145.852z M35.52,145.313c5.583,0.215,12.077,0.682,19.375,0.538
		c-0.077-2.614-0.39-4.992-1.615-6.458c-4.947,0.562-12.116,0.423-18.836,0C34.738,141.432,35.746,142.756,35.52,145.313z
		 M305.688,148.543c4.598,0.472,4.166-4.086,4.843-7.535C305.834,140.437,305.239,143.968,305.688,148.543z M256.175,144.775
		c-1.082,1.608-0.304,5.077-0.538,7.534c16.535,0.217,32.679-1.937,45.208-2.69c-0.218-2.294,0.521-5.544-0.538-6.997
		C285.105,143.579,269.317,145.62,256.175,144.775z M302.997,149.619c1.91-0.78,0.78-4.603,1.076-6.997c-0.538,0-1.076,0-1.614,0
		C303.048,145.549,300.753,148.181,302.997,149.619z M172.219,145.313c0.029,2.482-0.238,5.262,0.538,6.996
		c19.675,1.836,35.394,0.94,58.662,0.539c1.09-2.473,0.41-6.655,0-8.073C212.12,144.802,194.98,147.041,172.219,145.313z
		 M233.033,144.775c0,2.512,0,5.023,0,7.534c7.446,0.498,12.897,0.222,21.527,0c0-2.511,0-5.022,0-7.534
		C248.498,143.786,240.501,145.39,233.033,144.775z M15.069,145.852c0.85,1.124,1.116,2.831,1.076,4.844
		c1.548,0.255,3.175,2.049,4.306,1.076c0.192-2.704-0.331-4.691-1.077-6.458C17.212,145.967,15.437,143.889,15.069,145.852z
		 M148,145.852c0.777,1.735,0.509,4.515,0.539,6.997c7.371,0.515,14.657-0.668,22.604-0.539c-0.218-2.293,0.521-5.544-0.538-6.996
		C162.968,145.391,156.06,146.197,148,145.852z M22.604,152.849c0.937-0.041,1.674,0.119,2.152,0.538
		c0.087-1.693,0.887-8.297-3.229-7.535C22.291,147.779,21.643,151.118,22.604,152.849z M92.567,147.466
		c-0.397,2.551,0.605,3.7,0.539,5.921c17.297,1.221,37.287-0.444,53.818-0.538c0.459-2.355,0.323-4.199,0-6.997
		C126.735,146.499,112.737,146.898,92.567,147.466z M26.371,153.387c14.144,1.162,28.097,0.988,41.979,1.614
		c0.814-1.629,1.101-6.642-0.539-7.535c-13.383-0.104-29.653-0.357-41.978-1.076C25.972,148.763,26.693,150.553,26.371,153.387z
		 M69.426,148.005c0.763,1.928,0.115,5.266,1.076,6.996c6.652-0.519,15.538-0.405,21.527-1.076
		C95.125,141.76,76.644,150.13,69.426,148.005z M290.081,151.771c-0.564,2.441-0.323,3.191,0,5.92
		c7.269-0.444,14.778-0.649,19.912-3.229c0.699-1.298,1.932-4.854,0.538-6.458C305.763,151.309,297.741,151.36,290.081,151.771z
		 M269.092,153.387c-0.33,2.617-0.33,2.765,0,5.382c7.771,0.299,11.163-0.633,18.298-0.539c0.934-1.577,1.269-3.754,1.076-6.458
		C282.104,152.405,275.484,152.783,269.092,153.387z M17.76,159.307c5.493,1.241,12.299,2.479,18.298,1.614
		c-0.44-1.713-0.343-3.962-1.077-5.382c-6.634-0.722-13.732-0.978-18.836-3.229C15.497,153.925,16.862,157.513,17.76,159.307z
		 M131.317,154.463c0,1.614,0,3.229,0,4.844c18.225,1.69,46.823,2.11,59.738-0.538c0-1.256,0-2.512,0-3.768
		C170.031,152.648,151.363,154.335,131.317,154.463z M216.35,154.463c-0.464,2.146,0.804,3.976,0,4.844
		c16.926,2.636,32.138,1.729,51.128-0.538c0-1.615,0-3.229,0-4.844C256.206,153.329,231.864,153.826,216.35,154.463z
		 M110.866,155.001c-0.096,2.607,0.427,4.596,1.077,6.458c5.796,0.415,9.945-0.818,15.607-0.538c0.619-1.145,0.03-4.803-0.538-6.458
		C120.51,154.674,116.125,154.187,110.866,155.001z M130.24,160.383c0.519-0.381-0.352-3.923,0-5.92c-0.538,0-1.076,0-1.614,0
		C128.779,156.821,128.069,160.043,130.24,160.383z M194.822,155.001c0.146,1.827-0.417,4.363,0.538,5.382
		c5.466-0.507,10.274,0.68,15.607-0.538c0-1.794,0-3.588,0-5.382C204.139,154.196,201.733,155.187,194.822,155.001z
		 M212.044,159.845c2.011,0.049,1.534,0.604,3.229,0c0-1.794,0-3.588,0-5.382c-1.076,0-2.153,0-3.229,0
		C212.044,156.257,212.044,158.051,212.044,159.845z M37.673,161.459c7.29-0.134,11.734-0.006,19.375,0
		c0.304-2.456-0.954-3.352-0.538-5.92c-6.394-0.243-13.833,0.558-19.375-0.538C35.865,156.797,37.067,159.842,37.673,161.459z
		 M57.586,156.077c-0.371,2.164,0.516,3.072,0.538,4.844c16.506,3.38,29.081,0.195,48.975,0.538
		c0.009-2.341,0.178-4.842-0.538-6.458C88.688,154.938,75.873,156.612,57.586,156.077z M110.328,161.459
		c-0.644-1.509-0.592-3.714-0.538-5.92c-0.688-0.029-0.746-0.689-1.615-0.538C108.089,156.053,106.99,162.105,110.328,161.459z
		 M192.132,159.845c2.425-0.246,2.171-4.909,0-4.844C192.132,156.615,192.132,158.229,192.132,159.845z M305.149,163.612
		c1.521,0.444,1.395-0.759,2.691-0.539c-0.621-2.556,1.248-4.402,0-5.92C304.053,156.416,305.349,160.761,305.149,163.612z
		 M255.099,161.459c0.199,2.134-0.493,5.157,0.538,6.458c15.91-0.942,34.379,0.08,44.67-3.767c-0.902-1.868,1.315-5.267-1.615-5.921
		C284.843,159.988,269.366,160.119,255.099,161.459z M302.459,164.688c0.119-0.42,0.45-0.626,1.076-0.538
		c-1.209-2.124,0.85-4.168-0.538-5.921c-0.113,0.651-0.598,0.331-1.076,0C301.248,159.429,300.625,164.299,302.459,164.688z
		 M172.757,161.459c-0.213,2.545,0.173,4.491,0.538,6.458c18.291,1.814,38.39,0.825,57.586,0.538c0-2.152,0-4.305,0-6.458
		C209.465,160.376,193.552,161.085,172.757,161.459z M21.527,168.455c1.401-1.786-0.107-5.254-0.538-6.996
		c-0.633,0.084-1.528-0.093-1.615,0.538C20.796,163.446,19.002,168.11,21.527,168.455z M93.644,163.073
		c0.029,2.482-0.239,5.262,0.538,6.997c16.738-0.068,35.388-1.327,53.818-1.615c0.864-1.898-0.449-3.98,0-6.996
		C129.487,161.603,111.734,162.507,93.644,163.073z M149.615,168.455c6.758,0.405,15.163-0.363,22.604-0.538
		c0.217-2.549-0.961-3.703-0.538-6.458c-7.355,0-14.711,0-22.065,0C149.615,163.791,149.615,166.123,149.615,168.455z
		 M231.957,161.997c0,1.974,0,3.947,0,5.92c5.264,0.758,17.11,1.136,22.065-0.538c-0.175-1.978,0.459-4.765-0.538-5.92
		C247.338,162.342,240.121,161.661,231.957,161.997z M23.68,168.455c1.076,0,2.153,0,3.229,0c0.067-2.22-0.936-3.37-0.538-5.92
		c-1.268,0.013-1.584-0.927-3.229-0.538C22.468,163.198,23.506,166.406,23.68,168.455z M29.062,168.993
		c12.313,1.148,29.008-0.461,37.673,2.691c-1.973,0-3.947,0-5.92,0c-0.706,2.351,1.195,4.862,0,5.92
		c-1.275-1.058-1.095-3.569-1.077-5.92c-5.047-0.862-14.856-0.199-21.527-1.076c0.122,3.467,0.963,6.213,2.691,8.072
		c-4.216,0.271-7.605-0.288-11.302-0.538c-0.397,2.55,0.605,3.7,0.538,5.92c1.415,1.276,5.75-0.367,5.92,2.153
		c-4.994,0.329-8.909-0.42-13.455-0.538c0.299,3.468,0.953,6.581,2.691,8.61c5.582,0.021,10.125-0.997,15.069-1.614
		c-0.106-3.661-1.773-5.762-3.767-7.535c11.969,1.705,23.581,0.012,35.52,1.615c0.217-2.549-0.96-3.704-0.538-6.458
		c-10.249,0.022-20.323-0.129-28.524-2.153c20.591,1.017,43.353,0.476,65.12,0.538c-3.056,1.25-8.427,0.185-12.378,0.538
		c-0.416,2.568,0.841,3.464,0.538,5.92c17.172,1.806,33.426-0.194,52.742-1.076c0.835-2.135,0.511-4.136,0-5.92
		c-16.5,0.07-27.889,0.104-39.826,1.076c0.322-3.192-0.944-4.796-0.539-8.072c-12.561-0.882-28.475,2.35-41.44-0.538
		c11.868,0.03,20.243-0.07,25.833-0.538c-0.139-2.373-0.86-4.163-0.539-6.997c-8.38-0.145-18.525,0.332-22.065,0.539
		c0.108,1.713,1.403,5.02,0,6.458c-1.456-1.056,0.329-5.352-1.076-6.458c-11.089-1.342-27.793-1.101-41.979-1.077
		C28.089,164.584,27.572,167.793,29.062,168.993z M289.005,167.917c0,2.153,0,4.306,0,6.458c6.757-0.418,13.52-0.831,18.298-3.229
		c0.366-2.146,1.361-3.662,1.076-6.458C302.188,166.032,295.417,166.795,289.005,167.917z M268.016,168.993c0,2.153,0,4.306,0,6.459
		c6.503-0.432,13.034-0.023,19.374-1.615c0-1.794,0-3.588,0-5.382C280.179,168.399,273.354,168.534,268.016,168.993z
		 M132.931,170.07c0.292,2.398,0.529,4.853,1.077,6.996c7.262,0.632,17.104-1.316,22.604,1.076c-1.974,0-3.946,0-5.92,0
		c0,1.794,0,3.588,0,5.382c6.513,1.067,13.647-1.245,21.527-0.538c0.648-1.638,0.27-2.165,0.538-4.844
		c-5.18-1.318-9.28,0.566-13.993,0c7.979-2.432,21.509-1.55,32.829-2.152c0.304-2.456-0.953-3.352-0.538-5.92
		C171.327,168.804,153.637,169.509,132.931,170.07z M216.35,170.07c-0.947,1.812,0.362,2.76,0,5.382
		c8.753,1.867,23.494-0.252,32.829,2.152c-5.877,0.5-10.436-0.077-17.76,0c0,1.794,0,3.588,0,5.382
		c6.537,0.346,12.15,0.625,20.989,0.538c0.763-1.928,0.115-5.267,1.076-6.996c4.256-0.229,8.684-0.286,12.378-1.076
		c1.397-0.936,1.091-3.574,1.076-5.92C253.546,168.956,234.02,169.382,216.35,170.07z M21.527,176.528
		c4.767,1.364,11.328,1.302,16.146,0c0.018-2.351-0.467-4.197-1.076-5.92c-5.565-0.001-9.417-1.633-16.684-1.076
		C19.971,172.345,20.471,174.714,21.527,176.528z M132.393,177.604c0.237-1.518,0.782-7.449-2.153-7.534
		C130.934,172.606,130.196,176.572,132.393,177.604z M193.208,175.99c1.338-0.814-0.33-4.636,1.076-5.382
		c0.901,0.893,0.428,3.159,0.538,4.844c0.455,1.159,3.431-0.202,3.768,1.076c-8.61,0.874-17.122,0.548-25.295,1.076
		c0.528,2.199-0.06,2.175,0,4.844c17.915,2.029,38.492,2.195,56.51,0.538c0.954-1.019,0.392-3.555,0.538-5.382
		c-8.957-2.342-22.164,1.056-31.215-1.614c3.768,0,7.534,0,11.302,0c0.833-1.103,0.833-4.818,0-5.92
		c-5.049,0.258-11.346-0.155-17.76,0C192.486,171.254,191.165,174.824,193.208,175.99z M213.659,175.99
		c2.75,0.238,1.216-3.808,1.614-5.92c-1.076,0-2.153,0-3.229,0C212.286,172.34,211.223,175.915,213.659,175.99z M111.404,178.143
		c1.011-1.678,0.625-5.783,0-7.534c-0.538,0-1.076,0-1.614,0C109.496,172.024,109.583,177.11,111.404,178.143z M114.095,177.604
		c5.502,0.345,11.572-0.546,15.607,0c-0.029-2.482,0.239-5.262-0.538-6.996c-5.382,0-10.764,0-16.146,0
		C113.01,173.308,113.434,175.574,114.095,177.604z M304.611,179.219c0.886-1.04,2.673-6.229,0-5.92
		C304.055,175.225,303.784,177.338,304.611,179.219z M300.307,180.296c3.032-0.667,1.486-3.799,2.152-5.921
		c-0.538,0-1.076,0-1.614,0C300.802,177.473,300.269,176.926,300.307,180.296z M254.022,178.143c0,1.794,0,3.588,0,5.382
		c15.713-0.057,32.522,0.967,44.669-4.306c1.214-0.4,0.211-3.019,0.538-4.305C284.248,176.077,268.979,176.954,254.022,178.143z
		 M29.062,185.139c-1.062-1.987,0.548-6.647-2.153-6.996c-0.359,0-0.717,0-1.076,0C26.791,180.594,25.025,185.768,29.062,185.139z
		 M72.655,180.296c0.673,1.838,0.387,4.636,1.615,5.92c7.054-0.122,14.041-0.311,20.451-1.077c1.011-2.062-0.708-2.891,0.539-5.382
		C86.369,180.319,80.345,180.323,72.655,180.296z M288.466,183.524c0,1.794,0,3.588,0,5.382c5.447-0.114,10.456-0.667,15.069-1.614
		c1.129-2.101,2.938-3.521,2.691-6.996C300.539,181.604,294.383,182.444,288.466,183.524z M134.546,185.678
		c0.238,2.094,0.407,4.257,1.076,5.92c15.432,0.57,31.552-0.904,45.208-2.153c3.442-0.314,7.793,1.481,10.225-1.614
		c0-0.897,0-1.794,0-2.691C172.161,182.636,153.023,185.327,134.546,185.678z M216.35,185.139c-0.295,2.147-0.295,1.621,0,3.768
		c1.609,1.62,7.299-0.84,8.073,1.614c-3.947,0-7.894,0-11.841,0c0.176,1.979-0.459,4.765,0.538,5.921
		c5.411,0.332,9.376,0.224,15.607,0.538c0.955-1.019,0.393-3.555,0.538-5.382c-0.39-1.225-3.725,0.495-3.229-1.615
		c11.74,1.009,27.956,0.373,38.749,0.538c0.533-1.846-0.1-3.229,0.538-5.382C247.779,185.693,233.079,182.915,216.35,185.139z
		 M266.938,185.139c0,1.974,0,3.947,0,5.921c6.104-0.713,13.181-0.454,19.375-1.077c1.022-1.31,0.162-4.502,1.076-5.92
		C280.157,184.766,271.382,184.508,266.938,185.139z M193.746,189.444c-0.48-2.054,0.879-3.435,0-4.306
		C191.463,185.062,191.816,189.346,193.746,189.444z M195.36,205.052c5.58-0.426,10.099-0.636,15.607,0
		c0.741-7.633,0.309-13.044,0-19.913c-5.202,0-10.404,0-15.607,0C195.858,194.014,194.353,199.004,195.36,205.052z M214.197,189.444
		c1.674-0.119,0.909-2.679,1.076-4.306c-0.897,0-1.794,0-2.691,0C212.748,186.946,211.864,189.805,214.197,189.444z M63.506,187.83
		c-0.026,2.537,0.945,4.078,1.076,6.458c15.757,0.922,30.697,0.473,46.284-1.614c0.264-2.417-0.273-4.033-0.538-5.92
		C94.443,185.947,76.353,187.575,63.506,187.83z M114.633,187.292c0.947,6.408,1.646,13.064,3.229,18.836
		c11.928-0.083,27.643,0.306,35.52-0.538c4.417-0.286-4.423-0.935-7.534-1.076c-3.141-0.143-6.793,0.114-8.611,0
		c-1.209-0.943-0.165-4.141-2.153-4.306c-1.222,0.805,1.281,4.099,0,4.844c-3.268-4.446-2.377-13.05-4.305-18.836
		C125.56,186.737,119.502,186.421,114.633,187.292z M134.008,191.598c0.732-0.891-0.439-3.141,0-5.382c-0.538,0-1.077,0-1.615,0
		C132.511,188.43,132.479,190.794,134.008,191.598z M113.557,193.212c0.755-1.75,0.148-3.811-0.538-6.458c-0.538,0-1.076,0-1.615,0
		C112.23,188.798,110.857,193.041,113.557,193.212z M41.44,193.75c5.304,0.931,13.082,0.117,20.989,0.538
		c0.699-1.365-0.154-5.005-0.538-6.996c-8.044,0.863-11.909-0.021-21.527,0C40.495,189.672,41.466,191.213,41.44,193.75z
		 M302.997,192.674c0.119-1.008,1.388-3.566,0-4.306C303.308,189.807,301.405,191.73,302.997,192.674z M299.229,195.364
		c1.238-1.453,1.876-3.506,1.615-6.458c-0.538,0-1.077,0-1.615,0C299.985,191.482,297.678,193.776,299.229,195.364z M192.67,189.982
		c-6.772,1.072-12.706,0.566-17.761,1.615c0,1.435,0,2.87,0,4.305c5.236,1.223,12.713,0.204,18.837,0.539
		C193.371,194.305,194.685,190.479,192.67,189.982z M254.022,192.136c0,1.614,0,3.229,0,4.844
		c11.836,1.575,31.441,3.298,43.055-1.077c-0.067-2.22,0.936-3.369,0.538-5.92C284.45,192.065,269.646,192.512,254.022,192.136z
		 M151.229,192.674c0,1.794,0,3.588,0,5.382c8.089,0.097,16.697-0.592,22.604-1.076c-0.146-1.827,0.417-4.363-0.538-5.382
		C165.898,192.733,158.577,192.605,151.229,192.674z M230.343,196.979c9.745,0.597,11.501,0.302,21.527,0
		c0.9-0.894,0.428-3.16,0.538-4.844c-9.49-0.085-11.546-0.439-22.065-0.538C230.343,193.392,230.343,195.186,230.343,196.979z
		 M134.546,199.132c1.713-0.107,5.02-1.402,6.458,0c-1.328,0.466-3.726-0.138-3.767,1.614c1.298,4.65,8.009,2.513,11.84,2.691
		c10.245,0.477,24.706,0.847,33.367-0.538c3.553-0.568,9.356-0.948,8.61-4.844c-17.771-2.256-32.753,3.937-49.513,0
		c2.871,0,5.741,0,8.611,0c0-1.794,0-3.588,0-5.382C143.488,193.152,129.119,189.936,134.546,199.132z M96.873,195.902
		c-0.288,2.082,0.96,2.628,0.538,4.844c5.819-0.279,12.998,0.799,17.222-1.076c0.176-2.509-0.42-4.244-1.077-5.92
		C108.276,194.416,102.719,193.741,96.873,195.902z M34.444,201.823c13.257,1.963,27.442-1.484,40.364,0
		c0.018-2.351-0.467-4.197-1.076-5.921c-15.133-0.7-28.283-0.339-41.979-1.076C32.591,197.218,32.295,200.742,34.444,201.823z
		 M31.215,202.899c1.231-2.046-0.052-5.489-0.538-7.535c-0.782,0.295-2.782-0.629-2.691,0.538
		C29.563,197.734,29.682,201.023,31.215,202.899z M75.346,195.902c-0.384,2.717,0.735,3.93,1.077,5.921
		c6.864,0.342,12.389-1.36,19.375-1.077c0.421-2.395-0.717-3.229-0.538-5.382C88.356,195.279,82.561,196.302,75.346,195.902z
		 M287.39,199.67c0,1.076,0,2.153,0,3.229c2.783,1.624,7.353,1.134,10.226,0c0.419-1.755,2.634-4.515,1.076-6.458
		C296.411,199.176,290.023,198.851,287.39,199.67z M192.132,201.284c-6.408,2.794-17.619,2.624-22.065,4.306
		c8.656-0.143,13.329-0.724,23.68-0.538c0.177-3.526-0.479-4.81,0-7.534c-0.538,0-1.076,0-1.614,0
		C192.132,198.773,192.132,200.029,192.132,201.284z M214.197,203.438c1.227-0.746,0.2-3.746,0.538-5.382c-0.718,0-1.436,0-2.153,0
		C212.912,200.059,211.565,203.737,214.197,203.438z M215.812,198.056c0,1.614,0,3.229,0,4.844
		c13.845,0.313,25.996,1.565,39.825,0.538c2.545-0.189,7.493,0.131,8.073-3.229C249.573,197.187,232.685,199.007,215.812,198.056z
		 M264.786,201.823c5.622,2.271,14.061,1.726,20.989,2.69c0.901-0.893,0.428-3.159,0.538-4.844c-5.57,0.994-13.48,0.323-21.527,0
		C264.786,200.388,264.786,201.105,264.786,201.823z M66.197,202.361c-1.129,1.287,1.044,2.534,0.538,4.844
		c14.503-0.494,30.957-0.181,46.284-1.077c0.167-1.96-0.085-3.502-0.538-4.844C97.156,201.714,84.306,203.733,66.197,202.361z
		 M116.248,206.128c-0.239-1.733-1.031-2.915-1.076-4.844c-0.538,0-1.077,0-1.615,0C114.192,203.16,113.464,206.4,116.248,206.128z
		 M34.982,209.896c3.029,0.158,5.444-0.297,7.535-1.076c0.128-2.281-0.495-3.811-1.076-5.382c-3.389-0.02-7.16,0.343-9.149-1.076
		C31.965,206.096,33.441,208.028,34.982,209.896z M43.055,203.438c0.271,2.6,0.992,4.749,1.615,6.996
		c7.408-0.55,12.748-0.984,20.989-2.152c-0.001-2.152-1.076-3.23-1.077-5.382C58.087,203.76,50.326,203.354,43.055,203.438z
		 M261.557,204.514c2.722-0.222,7.021,0.884,10.764,1.076c2.264,0.117,8.147,0.343,6.997-0.538
		c-5.908-0.012-10.749-1.091-16.146-1.614c-0.418,0.12-1.062,0.015-1.076,0.538C261.522,203.952,260.729,204.229,261.557,204.514z
		 M220.655,204.514c-2.972,0.28-5.073-0.309-7.535-0.538C213.003,206.198,223.367,204.886,220.655,204.514z M262.634,205.59
		c-6.735-1.271-19.148-1.611-24.757-0.538C245.248,205.755,255.873,206.069,262.634,205.59z M88.262,207.743
		c-7.306,0-15.445-0.587-22.604,2.152c11.465-0.591,30.774-0.521,44.669-1.076c64.689-2.586,114.161,0.21,175.448-1.614
		C220.333,204.766,152.086,207.743,88.262,207.743z"/>
	<path fill-rule="evenodd" clip-rule="evenodd" d="M35.52,87.728c0.874,1.441,1.236,2.046,0,3.229
		c-1.258-0.177-2.223-0.647-3.229-1.076C32.704,87.346,33.78,88.275,35.52,87.728z"/>
	<path fill-rule="evenodd" clip-rule="evenodd" d="M157.149,89.343c0.741,0.693,0.533,2.337,0.538,3.767
		c-2.049,0.255-3.359-0.229-3.767-1.615C153.992,89.772,155.141,89.127,157.149,89.343z"/>
	<path fill-rule="evenodd" clip-rule="evenodd" fill="#F6F1CD" d="M210.968,102.797c1.06,1.453,0.32,4.703,0.538,6.997
		c-5.437-0.234-9.448,0.957-15.069,0.538C201.153,107.415,204.69,102.648,210.968,102.797z"/>
	<path fill-rule="evenodd" clip-rule="evenodd" fill="#F6F1CD" d="M123.244,121.095c0.661,2.03,1.085,4.297,1.076,6.997
		c-5.856-0.116-10.538,0.944-16.684,0.538c0.126-2.637-0.948-4.075-0.538-6.996C113.008,121.981,117.754,121.167,123.244,121.095z"
		/>
	<path fill-rule="evenodd" clip-rule="evenodd" fill="#F6F1CD" d="M231.419,144.775c0.41,1.418,1.09,5.601,0,8.073
		c-23.269,0.401-38.987,1.297-58.662-0.539c-0.776-1.734-0.509-4.514-0.538-6.996C194.98,147.041,212.12,144.802,231.419,144.775z"
		/>
</g>
</svg>
